<svg id="svg" version="1.1" xmlns="http://www.w3.org/2000/svg" xmlns:xlink="http://www.w3.org/1999/xlink" width="400" height="119.19866444073456" viewBox="0, 0, 400,119.19866444073456"><g id="svgg"><path id="path0" d="M53.083 10.935 C 41.273 13.552,25.757 28.343,16.038 46.250 C 8.705 59.761,9.542 72.383,17.972 75.400 C 23.128 77.245,27.618 75.541,38.623 67.562 C 48.995 60.042,52.840 58.146,58.542 57.737 C 61.379 57.534,60.447 56.909,57.512 57.047 C 52.418 57.287,48.488 59.131,37.483 66.447 C 22.679 76.288,17.813 77.151,15.017 70.431 C 11.253 61.382,16.354 47.264,29.043 31.614 C 41.164 16.663,56.913 8.237,62.139 13.906 C 68.415 20.715,60.203 34.338,46.013 40.661 C 40.843 42.964,37.956 43.228,36.145 41.564 C 35.308 40.794,35.063 40.655,34.616 40.698 C 33.708 40.786,33.794 41.450,34.833 42.384 C 40.997 47.927,59.679 38.061,65.710 26.080 C 69.040 19.463,66.493 12.861,59.917 11.063 C 58.481 10.671,54.604 10.598,53.083 10.935 M245.478 10.999 C 245.237 11.069,244.825 11.284,244.562 11.475 C 244.299 11.666,243.404 11.972,242.573 12.154 C 230.431 14.826,216.437 23.184,213.392 29.583 C 211.842 32.840,212.608 36.167,214.908 36.167 L 215.500 36.167 215.503 34.708 C 215.517 27.481,221.965 20.865,233.417 16.328 C 236.542 15.090,243.214 13.158,243.473 13.417 C 243.621 13.565,241.478 18.731,240.015 21.753 C 236.792 28.407,232.925 34.185,228.026 39.667 C 225.747 42.216,221.340 46.792,219.997 48.003 L 218.681 49.189 217.215 48.605 C 203.856 43.284,190.164 47.949,192.487 57.031 C 193.827 62.273,197.920 65.934,204.000 67.331 C 204.504 67.447,205.081 67.691,205.281 67.873 C 205.806 68.351,215.738 68.412,219.037 67.957 C 226.254 66.961,233.681 65.019,240.603 62.317 L 242.290 61.658 244.945 61.835 C 253.029 62.371,259.748 60.859,268.167 56.609 C 273.513 53.910,274.155 53.704,274.164 54.682 C 274.175 55.863,276.586 58.698,278.331 59.582 C 281.651 61.264,284.346 60.855,292.333 57.457 C 301.316 53.635,305.933 52.090,310.203 51.477 C 311.957 51.225,311.899 51.178,311.481 52.507 C 310.045 57.068,311.610 59.618,315.054 58.330 C 317.341 57.474,325.116 50.659,335.242 40.635 C 338.084 37.821,340.433 35.544,340.462 35.573 C 340.492 35.603,339.598 36.930,338.477 38.522 C 327.417 54.231,323.034 65.511,327.170 67.625 C 329.882 69.011,334.446 66.713,341.500 60.412 C 347.402 55.140,351.314 52.114,350.923 53.125 C 349.120 57.776,351.738 59.773,355.672 56.746 C 356.844 55.844,356.918 55.864,357.065 57.107 C 357.533 61.092,362.139 63.138,366.974 61.509 C 368.679 60.935,370.898 59.900,376.250 57.186 C 384.026 53.242,387.077 51.945,389.991 51.342 C 391.446 51.042,391.814 50.778,391.136 50.520 C 389.750 49.993,385.810 51.469,373.167 57.249 C 362.961 61.915,360.667 62.029,360.667 57.869 C 360.667 55.838,361.320 54.234,363.092 51.912 C 364.851 49.606,364.626 48.667,362.317 48.667 C 362.027 48.667,361.271 48.479,360.635 48.250 C 358.061 47.321,354.921 48.189,352.846 50.402 C 352.624 50.639,352.264 50.833,352.046 50.833 C 351.556 50.833,351.043 51.096,349.014 52.386 C 346.290 54.118,345.186 55.013,342.000 58.073 C 336.540 63.317,331.734 66.711,329.220 67.098 L 328.523 67.206 328.334 66.504 C 327.095 61.903,335.856 46.513,348.166 31.667 C 357.994 19.814,358.742 18.702,357.239 18.182 C 356.024 17.762,355.877 17.867,351.846 22.044 C 349.790 24.174,343.865 30.143,338.679 35.308 C 316.572 57.327,312.764 60.506,313.244 56.543 C 313.906 51.088,321.269 39.176,332.484 25.417 C 335.432 21.800,335.558 21.569,334.787 21.199 C 332.270 19.993,319.290 36.120,313.620 47.500 L 312.083 50.583 310.667 50.592 C 306.877 50.615,300.195 52.672,290.450 56.814 C 282.206 60.318,279.323 60.312,277.464 56.787 C 276.882 55.682,276.933 54.020,277.589 52.738 L 278.095 51.750 279.923 51.744 C 284.660 51.727,290.080 48.287,288.174 46.507 C 284.905 43.453,275.651 47.229,274.319 52.160 C 274.058 53.128,273.941 53.270,273.296 53.399 C 273.005 53.457,271.137 54.290,269.145 55.249 C 260.819 59.259,256.408 60.403,247.897 60.761 C 244.521 60.903,244.457 60.817,246.958 59.494 C 256.922 54.221,262.392 47.918,262.133 42.009 C 261.963 38.137,259.242 35.989,253.874 35.489 C 252.798 35.389,251.904 35.293,251.887 35.276 C 251.870 35.258,252.681 34.608,253.691 33.831 C 267.366 23.294,264.561 11.033,248.547 11.349 C 247.789 11.364,247.075 11.302,246.959 11.211 C 246.633 10.954,245.960 10.857,245.478 10.999 M252.805 13.160 C 262.134 15.819,260.777 25.860,249.996 33.943 C 247.708 35.659,247.449 35.785,244.720 36.501 C 238.434 38.151,233.747 40.343,234.518 41.271 C 235.120 41.997,241.478 40.382,246.077 38.335 C 251.845 35.768,256.663 36.120,258.006 39.207 C 259.673 43.043,256.912 48.256,250.445 53.482 C 247.030 56.240,240.686 59.998,239.441 59.999 C 237.771 60.001,233.041 57.892,229.083 55.381 C 227.800 54.567,225.534 53.170,224.047 52.277 C 222.561 51.384,221.297 50.576,221.238 50.481 C 221.180 50.386,223.561 47.858,226.530 44.863 C 237.994 33.299,243.333 25.293,246.424 15.036 C 246.748 13.962,247.141 12.982,247.298 12.859 C 247.726 12.521,251.237 12.714,252.805 13.160 M110.067 46.570 C 108.241 47.205,106.329 48.452,105.190 49.749 C 104.746 50.255,104.500 50.379,103.678 50.511 C 101.495 50.863,97.803 52.332,88.917 56.385 C 80.479 60.234,78.864 60.826,76.779 60.831 C 73.627 60.839,73.722 56.267,76.965 51.893 C 78.172 50.266,78.387 49.881,78.265 49.563 C 78.135 49.223,76.862 48.675,76.193 48.670 C 75.886 48.668,75.080 48.470,74.402 48.229 C 69.849 46.612,64.167 50.972,64.167 56.081 C 64.167 58.567,66.724 58.886,69.505 56.746 C 70.557 55.937,70.833 55.912,70.833 56.624 C 70.833 59.230,73.203 61.556,76.306 61.996 C 79.147 62.399,81.024 61.743,90.167 57.155 C 96.882 53.785,99.388 52.652,101.905 51.846 C 104.049 51.159,103.998 51.118,102.995 52.719 C 100.860 56.123,101.565 57.742,105.333 58.090 C 106.436 58.193,106.815 58.135,110.914 57.249 C 113.167 56.762,113.468 56.785,113.877 57.477 C 114.514 58.555,114.181 59.662,112.886 60.771 C 111.737 61.755,111.126 62.929,111.583 63.275 C 112.687 64.108,114.694 62.936,116.096 60.641 C 116.775 59.529,120.154 56.988,124.135 54.596 C 125.400 53.836,125.358 53.807,125.130 55.279 C 124.646 58.407,127.188 59.165,130.335 56.832 C 131.718 55.807,131.595 55.783,131.828 57.125 C 132.300 59.835,134.222 61.562,137.240 61.987 C 140.188 62.403,142.276 61.671,151.250 57.078 C 158.283 53.477,162.873 51.565,165.328 51.211 C 166.326 51.068,166.588 50.755,165.921 50.502 C 164.598 49.999,160.987 51.328,149.462 56.564 C 139.080 61.280,136.841 61.808,135.808 59.784 C 134.850 57.907,135.683 54.739,137.883 51.892 C 139.730 49.501,139.592 48.994,137.000 48.651 C 136.496 48.585,135.634 48.366,135.084 48.166 C 132.236 47.128,128.285 48.892,126.217 52.124 C 125.748 52.857,125.576 53.000,125.163 53.000 C 124.511 53.000,122.106 54.267,119.366 56.054 C 116.789 57.735,117.053 57.662,116.324 56.896 C 114.900 55.397,112.793 55.216,108.675 56.236 C 105.048 57.136,104.699 56.952,105.749 54.698 C 108.481 48.829,115.167 45.251,115.167 49.658 C 115.167 51.749,117.404 51.757,117.603 49.667 C 117.874 46.818,113.966 45.212,110.067 46.570 M285.066 48.118 C 283.498 49.458,279.273 50.837,280.200 49.706 C 280.860 48.902,283.439 47.615,284.917 47.352 C 285.813 47.193,285.861 47.439,285.066 48.118 M209.827 47.766 C 212.211 48.177,216.521 49.640,217.151 50.252 C 217.350 50.446,217.020 50.857,214.920 53.031 C 209.617 58.524,206.029 63.484,205.563 65.965 C 205.420 66.727,205.274 66.748,203.654 66.237 C 194.850 63.460,190.443 54.908,195.456 50.327 C 198.164 47.852,204.146 46.785,209.827 47.766 M73.633 49.533 C 73.981 49.881,73.869 50.080,72.281 51.936 C 69.474 55.217,66.667 57.365,66.667 56.233 C 66.667 53.999,72.495 48.395,73.633 49.533 M134.565 49.647 C 135.215 50.364,129.067 56.667,127.718 56.667 C 127.530 56.667,127.500 56.542,127.588 56.125 C 128.203 53.214,133.415 48.375,134.565 49.647 M359.738 49.595 C 360.116 49.973,360.150 49.913,358.338 52.037 C 356.630 54.038,354.784 55.708,353.551 56.366 C 352.689 56.827,352.606 56.755,352.893 55.801 C 353.762 52.913,358.636 48.494,359.738 49.595 M224.590 54.507 C 230.253 57.877,234.333 59.867,236.916 60.517 C 237.909 60.767,237.812 60.963,236.406 61.542 C 226.881 65.460,216.771 67.659,210.022 67.280 C 207.939 67.163,207.967 67.185,208.562 66.112 C 211.176 61.400,218.717 51.833,219.818 51.833 C 219.971 51.833,222.119 53.037,224.590 54.507 M28.066 89.234 C 23.631 90.082,21.227 93.567,22.845 96.803 C 25.297 101.710,35.252 101.792,37.801 96.927 C 40.188 92.372,34.628 87.979,28.066 89.234 M94.583 89.105 C 85.521 90.513,86.503 100.064,95.750 100.451 C 100.797 100.662,104.231 98.390,104.241 94.833 C 104.253 91.040,99.661 88.316,94.583 89.105 M112.085 89.251 C 108.753 89.945,106.678 91.954,106.530 94.627 C 106.122 102.003,121.690 102.636,122.449 95.275 C 122.879 91.111,117.675 88.086,112.085 89.251 M187.750 89.105 C 178.414 90.555,179.873 100.483,189.423 100.498 C 191.719 100.501,194.917 99.550,194.917 98.864 C 194.917 98.339,193.802 97.833,193.351 98.154 C 190.575 100.125,185.286 99.186,183.939 96.482 C 181.830 92.250,188.095 88.550,192.950 91.160 L 193.817 91.626 194.408 91.223 C 195.169 90.706,195.157 90.638,194.208 90.126 C 192.661 89.291,189.634 88.812,187.750 89.105 M259.417 89.093 C 259.233 89.135,258.671 89.252,258.167 89.353 C 251.226 90.741,251.255 98.610,258.207 100.249 C 261.732 101.080,267.727 99.597,265.901 98.346 L 265.324 97.950 264.453 98.384 C 259.878 100.666,253.924 97.830,254.989 93.875 C 255.842 90.708,261.083 89.268,264.600 91.233 L 265.286 91.616 265.904 91.155 L 266.523 90.694 265.886 90.259 C 264.629 89.400,260.952 88.737,259.417 89.093 M41.697 93.125 C 41.756 97.531,41.815 97.788,43.027 98.949 C 45.320 101.145,51.049 101.028,53.155 98.743 C 54.187 97.624,54.333 96.875,54.333 92.720 L 54.333 89.167 53.417 89.167 L 52.500 89.167 52.499 92.208 C 52.497 98.181,51.905 99.083,47.987 99.083 C 44.180 99.083,43.667 98.347,43.667 92.881 L 43.667 89.167 42.656 89.167 L 41.645 89.167 41.697 93.125 M56.667 89.833 L 56.667 90.500 59.250 90.500 L 61.833 90.500 61.833 95.508 L 61.833 100.517 62.792 100.467 L 63.750 100.417 63.794 95.458 L 63.838 90.500 66.419 90.500 L 69.000 90.500 69.000 89.833 L 69.000 89.167 62.833 89.167 L 56.667 89.167 56.667 89.833 M71.500 94.839 L 71.500 100.543 75.708 100.452 C 80.174 100.356,81.005 100.233,82.756 99.406 C 86.776 97.507,87.107 92.858,83.389 90.499 C 81.693 89.423,80.893 89.284,75.958 89.206 L 71.500 89.135 71.500 94.839 M126.039 94.792 L 126.083 100.417 127.042 100.467 L 128.000 100.517 128.000 98.758 L 128.000 97.000 130.542 97.008 L 133.083 97.015 134.583 98.668 C 136.203 100.453,136.360 100.547,137.583 100.469 L 138.393 100.417 136.607 98.554 L 134.820 96.691 135.831 96.237 C 138.847 94.884,139.014 91.425,136.132 90.015 C 134.636 89.283,133.746 89.167,129.642 89.167 L 125.996 89.167 126.039 94.792 M147.833 94.842 L 147.833 100.517 148.792 100.467 L 149.750 100.417 149.803 98.917 L 149.856 97.417 151.258 96.355 L 152.660 95.293 154.355 96.772 C 155.286 97.585,156.633 98.760,157.348 99.383 L 158.646 100.516 159.759 100.466 L 160.871 100.417 157.531 97.417 C 155.693 95.767,154.185 94.335,154.178 94.236 C 154.172 94.137,155.535 92.974,157.208 91.653 L 160.250 89.250 159.202 89.200 L 158.155 89.150 154.036 92.323 L 149.917 95.496 149.871 92.331 L 149.826 89.167 148.830 89.167 L 147.833 89.167 147.833 94.842 M163.333 94.842 L 163.333 100.517 164.292 100.467 L 165.250 100.417 165.294 94.792 L 165.338 89.167 164.336 89.167 L 163.333 89.167 163.333 94.842 M168.000 89.833 L 168.000 90.500 170.583 90.500 L 173.167 90.500 173.167 95.500 L 173.167 100.500 174.167 100.500 L 175.167 100.500 175.167 95.504 L 175.167 90.508 177.792 90.463 L 180.417 90.417 180.468 89.792 L 180.520 89.167 174.260 89.167 L 168.000 89.167 168.000 89.833 M198.333 94.833 L 198.333 100.500 199.333 100.500 L 200.333 100.500 200.333 97.917 L 200.333 95.333 204.746 95.333 L 209.158 95.333 209.204 97.875 L 209.250 100.417 210.292 100.466 L 211.333 100.516 211.333 94.841 L 211.333 89.167 210.250 89.167 L 209.167 89.167 209.167 91.583 L 209.167 94.000 204.750 94.000 L 200.333 94.000 200.333 91.583 L 200.333 89.167 199.333 89.167 L 198.333 89.167 198.333 94.833 M216.039 94.792 L 216.083 100.417 221.542 100.461 L 227.000 100.505 227.000 99.838 L 227.000 99.172 222.542 99.128 L 218.083 99.083 218.083 97.250 L 218.083 95.417 221.875 95.372 L 225.667 95.327 225.667 94.664 L 225.667 94.000 221.833 94.000 L 218.000 94.000 218.000 92.250 L 218.000 90.500 222.333 90.500 L 226.667 90.500 226.667 89.833 L 226.667 89.167 221.331 89.167 L 215.996 89.167 216.039 94.792 M230.539 94.792 L 230.583 100.417 231.542 100.467 L 232.500 100.517 232.500 96.351 C 232.500 93.900,232.565 92.146,232.658 92.088 C 232.745 92.035,234.864 93.903,237.367 96.241 L 241.917 100.491 242.708 100.496 L 243.500 100.500 243.500 94.833 L 243.500 89.167 242.500 89.167 L 241.500 89.167 241.500 93.333 C 241.500 95.625,241.442 97.500,241.371 97.500 C 241.299 97.500,239.222 95.625,236.753 93.333 L 232.265 89.167 231.381 89.167 L 230.496 89.167 230.539 94.792 M271.125 93.958 C 266.647 101.359,267.006 100.534,268.292 100.467 L 269.250 100.417 270.102 99.000 L 270.954 97.583 274.935 97.543 C 279.501 97.496,279.035 97.352,280.066 99.125 L 280.865 100.500 281.861 100.500 C 283.119 100.500,283.353 101.070,279.446 94.620 L 276.141 89.167 275.083 89.167 L 274.024 89.167 271.125 93.958 M285.500 94.855 L 285.500 100.543 290.208 100.457 C 295.297 100.363,296.111 100.241,297.368 99.385 C 299.191 98.144,298.589 95.533,296.322 94.848 C 295.661 94.648,295.617 94.605,295.903 94.437 C 298.659 92.826,298.091 90.169,294.833 89.428 C 293.958 89.229,292.708 89.167,289.592 89.167 L 285.500 89.167 285.500 94.855 M301.833 94.833 L 301.833 100.500 302.833 100.500 L 303.833 100.500 303.833 94.833 L 303.833 89.167 302.833 89.167 L 301.833 89.167 301.833 94.833 M308.667 94.833 L 308.667 100.500 309.667 100.500 L 310.667 100.500 310.667 96.250 C 310.667 93.912,310.723 92.000,310.792 92.000 C 310.861 92.000,312.972 93.912,315.484 96.250 L 320.050 100.500 320.858 100.500 L 321.667 100.500 321.667 94.833 L 321.667 89.167 320.667 89.167 L 319.667 89.167 319.667 93.333 C 319.667 95.633,319.601 97.500,319.519 97.500 C 319.438 97.500,317.357 95.626,314.894 93.335 L 310.417 89.170 309.542 89.168 L 308.667 89.167 308.667 94.833 M326.206 94.792 L 326.250 100.417 331.708 100.461 L 337.167 100.505 337.167 99.838 L 337.167 99.172 332.708 99.128 L 328.250 99.083 328.250 97.250 L 328.250 95.417 332.042 95.372 L 335.833 95.327 335.833 94.667 L 335.833 94.006 332.042 93.961 L 328.250 93.917 328.203 92.208 L 328.155 90.500 332.494 90.500 L 336.833 90.500 336.833 89.833 L 336.833 89.167 331.498 89.167 L 326.162 89.167 326.206 94.792 M338.833 89.833 L 338.833 90.500 341.417 90.500 L 344.000 90.500 344.000 95.508 L 344.000 100.517 344.958 100.467 L 345.917 100.417 345.961 95.458 L 346.005 90.500 348.586 90.500 L 351.167 90.500 351.167 89.833 L 351.167 89.167 345.000 89.167 L 338.833 89.167 338.833 89.833 M353.667 94.842 L 353.667 100.517 354.625 100.467 L 355.583 100.417 355.631 98.708 L 355.678 97.000 358.133 97.000 L 360.588 97.000 362.222 98.750 L 363.857 100.500 364.845 100.500 C 366.090 100.500,366.132 100.621,364.167 98.534 C 362.250 96.500,362.303 96.612,363.143 96.360 C 366.095 95.476,366.577 91.633,363.930 90.082 C 362.708 89.366,361.301 89.173,357.292 89.170 L 353.667 89.167 353.667 94.842 M367.167 89.249 C 367.167 89.295,368.479 90.942,370.083 92.910 L 373.000 96.487 373.000 98.502 L 373.000 100.517 373.958 100.467 L 374.917 100.417 374.964 98.438 L 375.011 96.459 377.806 93.021 C 379.343 91.130,380.657 89.490,380.727 89.375 C 380.822 89.217,380.617 89.169,379.885 89.176 L 378.917 89.184 376.513 92.168 C 375.192 93.809,374.067 95.124,374.013 95.090 C 373.960 95.056,372.867 93.713,371.583 92.107 L 369.250 89.186 368.208 89.176 C 367.635 89.171,367.167 89.204,367.167 89.249 M33.245 90.839 C 35.605 91.738,36.909 94.133,36.096 96.079 C 34.636 99.574,28.128 100.314,25.412 97.293 C 21.928 93.418,27.644 88.707,33.245 90.839 M98.220 90.583 C 101.469 91.429,103.029 93.947,101.834 96.415 C 100.014 100.175,92.377 100.065,90.645 96.254 C 89.039 92.717,93.524 89.359,98.220 90.583 M117.301 90.805 C 119.856 91.777,121.105 94.347,120.036 96.432 C 117.740 100.912,108.510 99.581,108.501 94.769 C 108.495 91.479,113.337 89.298,117.301 90.805 M294.611 90.791 C 295.788 91.415,295.936 92.669,294.925 93.464 C 294.296 93.959,292.586 94.187,289.917 94.131 L 287.583 94.083 287.536 92.193 L 287.489 90.302 290.703 90.363 C 293.630 90.418,293.979 90.456,294.611 90.791 M80.939 90.943 C 84.710 92.458,84.997 96.549,81.460 98.354 C 80.341 98.924,78.761 99.161,76.042 99.164 L 73.500 99.167 73.500 94.818 L 73.500 90.470 76.792 90.535 C 79.632 90.590,80.201 90.646,80.939 90.943 M134.798 90.965 C 136.721 91.991,136.623 94.141,134.604 95.213 C 133.973 95.548,133.678 95.578,131.000 95.581 L 128.083 95.583 128.037 93.028 L 127.991 90.473 131.037 90.529 C 133.833 90.580,134.142 90.615,134.798 90.965 M361.787 90.752 C 364.122 91.445,364.386 94.122,362.225 95.185 C 361.487 95.548,361.167 95.588,358.542 95.641 L 355.667 95.700 355.667 93.100 L 355.667 90.500 358.303 90.500 C 360.170 90.500,361.187 90.574,361.787 90.752 M276.805 93.531 C 277.646 94.969,278.333 96.188,278.333 96.239 C 278.333 96.291,276.871 96.333,275.083 96.333 C 273.257 96.333,271.833 96.267,271.833 96.183 C 271.833 95.860,275.039 90.640,275.155 90.774 C 275.222 90.853,275.965 92.093,276.805 93.531 M294.794 95.587 C 296.922 96.219,296.864 98.392,294.703 98.993 C 294.362 99.087,292.602 99.165,290.792 99.166 L 287.500 99.167 287.500 97.250 L 287.500 95.333 290.720 95.333 C 293.118 95.333,294.158 95.398,294.794 95.587 " stroke="none" fill="#070707" fill-rule="evenodd"></path><path id="path1" d="M0.000 59.583 L 0.000 119.167 200.000 119.167 L 400.000 119.167 400.000 59.583 L 400.000 0.000 200.000 0.000 L 0.000 0.000 0.000 59.583 M58.857 10.764 C 67.404 12.385,69.914 20.338,64.454 28.500 C 57.296 39.203,42.148 46.963,35.705 43.228 C 33.794 42.120,33.176 40.500,34.663 40.500 C 35.167 40.500,35.524 40.730,36.433 41.639 C 39.199 44.405,50.210 39.784,57.011 33.004 C 64.083 25.951,66.087 18.454,62.084 14.023 C 57.201 8.617,41.782 16.503,30.358 30.250 C 17.839 45.313,12.475 57.941,14.395 67.833 C 15.897 75.578,21.044 76.484,30.627 70.692 C 31.567 70.123,34.717 68.076,37.627 66.143 C 45.607 60.840,48.936 58.988,52.667 57.775 C 56.427 56.552,60.333 56.406,60.333 57.488 C 60.333 57.912,60.019 58.000,58.501 58.000 C 53.487 58.000,49.130 60.134,38.717 67.690 C 29.979 74.031,26.291 75.919,22.237 76.126 C 10.552 76.722,7.330 62.868,15.483 47.083 C 26.774 25.223,46.776 8.474,58.857 10.764 M247.000 11.083 C 247.296 11.253,247.999 11.323,249.429 11.327 C 265.123 11.373,267.358 23.732,253.552 34.124 C 252.017 35.278,252.013 35.266,253.958 35.382 C 262.266 35.880,264.850 42.112,259.796 49.462 C 257.463 52.855,252.812 56.587,247.258 59.521 L 245.417 60.494 247.774 60.497 C 255.096 60.506,260.453 59.183,268.333 55.422 C 272.273 53.542,272.989 53.228,273.561 53.134 C 273.777 53.099,273.960 52.798,274.160 52.151 C 275.788 46.882,285.315 43.092,288.375 46.495 C 290.081 48.393,284.862 51.859,280.234 51.900 C 278.092 51.919,277.994 51.969,277.506 53.271 C 276.908 54.871,277.107 56.219,278.148 57.609 C 279.931 59.990,283.073 59.762,290.188 56.736 C 300.561 52.323,308.228 50.018,311.317 50.384 L 312.103 50.477 312.574 49.363 C 314.137 45.667,317.676 39.867,322.506 33.083 C 326.662 27.246,332.770 20.992,334.303 21.005 C 334.984 21.011,335.500 21.316,335.500 21.713 C 335.500 21.856,334.285 23.460,332.799 25.278 C 321.370 39.267,313.854 51.414,313.378 56.667 C 313.239 58.199,313.602 58.176,316.083 56.493 C 319.253 54.344,336.904 37.261,351.256 22.452 L 355.583 17.987 356.469 17.993 C 359.452 18.016,359.100 18.655,350.080 29.583 C 342.497 38.771,338.546 44.123,335.132 49.833 C 329.757 58.821,326.883 67.053,329.183 66.872 C 331.501 66.689,336.079 63.476,341.833 57.995 C 343.346 56.554,344.921 55.093,345.333 54.749 C 347.043 53.322,351.345 50.667,351.947 50.667 C 352.169 50.667,352.591 50.439,352.884 50.161 C 355.222 47.942,358.074 47.136,360.462 48.020 C 360.987 48.214,361.832 48.429,362.340 48.497 C 364.973 48.853,365.125 49.460,363.213 51.997 C 361.523 54.238,360.845 55.905,360.838 57.833 C 360.824 62.000,362.718 61.795,374.750 56.333 C 386.206 51.133,389.856 49.803,391.235 50.327 C 391.885 50.575,391.784 51.229,391.083 51.303 C 388.546 51.571,385.093 52.985,376.192 57.400 C 366.586 62.166,364.931 62.717,362.062 62.111 C 359.100 61.485,357.181 59.663,356.889 57.198 C 356.767 56.163,356.726 56.156,355.614 56.977 C 353.715 58.380,352.472 58.666,351.166 57.999 C 350.113 57.463,349.867 56.226,350.403 54.162 C 350.533 53.660,350.613 53.224,350.581 53.192 C 350.415 53.026,346.305 56.379,341.833 60.328 C 335.534 65.892,331.805 68.167,328.988 68.167 C 321.935 68.167,325.646 56.584,338.680 37.917 C 339.703 36.452,339.603 36.539,334.489 41.584 C 319.818 56.057,314.534 60.059,312.044 58.584 C 310.726 57.803,310.519 54.584,311.604 51.755 C 312.115 50.425,302.693 53.260,293.126 57.314 C 284.074 61.151,281.682 61.527,278.183 59.662 C 276.324 58.671,274.000 55.869,274.000 54.618 C 274.000 54.024,272.998 54.393,268.536 56.627 C 259.610 61.098,252.647 62.667,244.638 62.014 C 242.468 61.837,242.316 61.845,241.471 62.182 C 232.678 65.691,222.408 68.121,215.000 68.447 C 211.287 68.610,205.538 68.356,205.197 68.014 C 205.043 67.859,204.504 67.634,204.000 67.514 C 197.441 65.951,193.033 61.659,192.152 55.977 C 190.836 47.498,204.549 43.368,217.204 48.431 L 218.712 49.035 221.869 45.892 C 230.731 37.073,235.560 30.605,239.770 21.917 C 240.943 19.497,243.390 13.668,243.280 13.558 C 243.038 13.316,236.909 15.114,233.678 16.376 C 222.434 20.768,216.050 27.082,215.689 34.167 L 215.583 36.250 214.917 36.295 C 212.143 36.484,211.647 31.915,214.041 28.215 C 217.946 22.178,230.321 15.055,241.792 12.240 C 243.164 11.903,244.397 11.505,244.583 11.339 C 245.203 10.787,246.282 10.673,247.000 11.083 M247.260 13.020 C 247.216 13.147,246.775 14.487,246.278 16.000 C 242.836 26.492,237.407 34.395,225.726 45.917 C 223.309 48.300,221.333 50.300,221.333 50.362 C 221.333 50.423,222.402 51.108,223.708 51.884 C 225.015 52.661,227.358 54.098,228.917 55.078 C 233.123 57.724,237.750 59.833,239.346 59.833 C 241.414 59.833,250.702 53.631,254.001 50.047 C 262.373 40.953,257.690 33.389,246.703 38.257 C 241.249 40.674,235.195 42.193,234.422 41.340 C 233.498 40.319,238.181 38.037,244.684 36.340 C 247.514 35.601,247.437 35.637,249.500 34.111 C 260.494 25.980,262.076 15.809,252.744 13.241 C 251.372 12.863,247.370 12.702,247.260 13.020 M114.814 46.185 C 116.973 46.671,118.025 48.026,117.737 49.948 C 117.415 52.093,115.282 51.876,115.132 49.684 C 114.970 47.325,113.341 47.109,110.579 49.080 C 108.698 50.422,106.891 52.624,105.831 54.865 C 104.862 56.913,104.957 56.954,108.606 56.060 C 112.916 55.005,115.359 55.255,116.556 56.873 C 117.004 57.480,116.832 57.541,119.414 55.847 C 122.017 54.139,124.407 52.859,125.145 52.778 C 125.559 52.733,125.784 52.529,126.346 51.687 C 128.477 48.497,132.308 46.963,135.403 48.062 C 136.081 48.303,136.889 48.500,137.199 48.500 C 139.442 48.500,139.767 49.614,138.160 51.794 C 136.266 54.363,135.667 55.823,135.667 57.869 C 135.667 62.035,137.630 61.801,149.917 56.170 C 161.845 50.703,165.992 49.330,166.429 50.704 C 166.563 51.126,166.343 51.267,165.341 51.400 C 162.871 51.728,159.665 53.066,151.167 57.318 C 144.088 60.860,141.732 61.875,139.910 62.170 C 135.995 62.804,132.261 60.700,131.754 57.574 C 131.500 56.008,131.608 56.064,130.500 56.916 C 127.360 59.333,124.867 58.732,125.032 55.600 L 125.105 54.205 123.382 55.260 C 119.563 57.598,116.698 59.812,116.169 60.833 C 115.464 62.194,113.626 63.667,112.633 63.667 C 110.809 63.667,110.886 62.588,112.852 60.577 C 114.190 59.210,114.417 58.079,113.516 57.264 C 113.162 56.944,113.509 56.895,108.250 58.013 C 102.402 59.256,100.216 56.876,103.063 52.365 C 103.605 51.507,103.525 51.497,101.524 52.167 C 99.013 53.009,97.362 53.762,89.833 57.499 C 80.461 62.151,78.756 62.715,75.896 62.111 C 72.920 61.482,71.216 59.856,70.758 57.208 L 70.578 56.165 69.414 57.020 C 66.543 59.129,64.000 58.662,64.000 56.027 C 64.000 50.956,69.920 46.369,74.333 48.021 C 74.837 48.209,75.662 48.420,76.167 48.489 C 78.812 48.849,78.982 49.416,77.172 51.850 C 74.843 54.982,74.097 57.646,74.996 59.626 C 75.939 61.704,77.963 61.182,89.833 55.793 C 97.515 52.306,100.494 51.099,102.847 50.518 C 104.575 50.092,104.635 50.061,105.786 49.000 C 108.625 46.383,111.591 45.458,114.814 46.185 M203.224 47.693 C 200.010 47.995,197.171 49.002,195.560 50.411 C 190.697 54.665,194.881 63.174,203.167 65.886 C 205.404 66.618,205.271 66.634,205.577 65.581 C 206.421 62.677,209.617 58.300,214.730 53.045 C 216.097 51.641,217.173 50.451,217.123 50.401 C 215.559 48.837,207.583 47.283,203.224 47.693 M283.648 47.896 C 282.429 48.326,282.444 48.319,281.208 49.127 C 279.554 50.209,280.978 50.126,283.250 49.008 C 285.824 47.742,286.075 47.039,283.648 47.896 M72.068 49.995 C 69.851 51.108,66.667 54.902,66.865 56.196 C 66.985 56.977,70.404 54.065,72.728 51.203 C 73.541 50.201,73.671 49.956,73.499 49.749 C 73.226 49.419,73.208 49.422,72.068 49.995 M132.917 50.040 C 130.941 51.090,128.164 54.326,127.767 56.042 C 127.629 56.635,127.743 56.620,128.799 55.909 C 130.855 54.524,134.856 50.178,134.485 49.732 C 134.215 49.406,134.048 49.439,132.917 50.040 M358.152 50.032 C 356.068 51.069,352.835 54.945,353.031 56.173 C 353.152 56.941,356.163 54.412,358.645 51.457 C 359.667 50.241,359.837 49.956,359.665 49.749 C 359.391 49.418,359.382 49.420,358.152 50.032 M217.914 53.704 C 215.104 56.659,212.567 60.002,209.595 64.667 L 208.161 66.917 209.289 67.046 C 214.926 67.691,224.836 65.758,234.365 62.154 C 237.737 60.879,237.651 60.986,235.818 60.346 C 232.571 59.212,229.623 57.743,225.083 54.995 C 221.222 52.658,220.056 52.000,219.780 52.000 C 219.644 52.000,218.805 52.767,217.914 53.704 M32.548 89.076 C 39.072 90.239,40.682 96.842,35.110 99.584 C 29.815 102.190,22.685 99.807,22.217 95.275 C 21.782 91.063,26.800 88.052,32.548 89.076 M99.765 89.405 C 105.963 91.363,105.908 98.242,99.679 100.179 C 95.149 101.587,89.563 99.706,88.434 96.393 C 86.726 91.379,93.259 87.350,99.765 89.405 M117.687 89.300 C 121.647 90.413,123.628 93.790,122.122 96.857 C 119.661 101.868,109.661 101.939,106.905 96.965 C 104.219 92.117,110.877 87.384,117.687 89.300 M192.619 89.304 C 193.721 89.649,195.167 90.418,195.167 90.659 C 195.167 90.739,194.858 91.031,194.481 91.309 L 193.795 91.813 193.189 91.418 C 190.810 89.869,186.478 90.304,184.662 92.274 C 180.977 96.273,187.318 100.978,192.802 98.314 L 193.854 97.802 194.521 98.244 C 196.827 99.770,189.644 101.386,185.985 100.165 C 176.481 96.992,183.013 86.298,192.619 89.304 M262.667 89.004 C 263.985 89.208,265.019 89.566,265.958 90.146 C 266.827 90.683,266.829 90.721,265.998 91.271 L 265.329 91.714 264.123 91.155 C 259.095 88.826,253.282 92.555,255.606 96.619 C 256.963 98.993,261.263 99.830,264.290 98.308 L 265.330 97.785 265.998 98.249 C 266.824 98.821,266.824 98.823,265.958 99.386 C 264.148 100.564,260.141 100.996,257.755 100.272 C 248.589 97.488,252.943 87.498,262.667 89.004 M43.846 92.708 C 43.859 96.606,43.937 97.119,44.636 97.920 C 45.717 99.156,48.621 99.481,50.442 98.569 C 52.026 97.777,52.068 97.640,52.167 93.000 L 52.250 89.083 53.386 89.034 L 54.522 88.984 54.469 93.034 L 54.417 97.083 53.899 97.996 C 51.641 101.976,43.001 101.433,41.736 97.231 C 41.563 96.656,41.500 95.454,41.500 92.724 L 41.500 89.000 42.667 89.000 L 43.833 89.000 43.846 92.708 M69.167 89.750 L 69.167 90.500 66.583 90.500 L 64.000 90.500 64.000 95.500 L 64.000 100.500 62.833 100.500 L 61.667 100.500 61.667 95.500 L 61.667 90.500 59.083 90.500 L 56.500 90.500 56.500 89.750 L 56.500 89.000 62.833 89.000 L 69.167 89.000 69.167 89.750 M80.427 89.258 C 87.956 90.813,88.057 98.664,80.569 100.250 C 79.741 100.425,78.279 100.495,75.375 100.497 L 71.333 100.500 71.333 94.750 L 71.333 89.000 75.257 89.000 C 78.147 89.000,79.509 89.068,80.427 89.258 M135.250 89.415 C 139.096 90.828,139.496 94.768,135.952 96.335 L 135.154 96.688 135.814 97.469 C 136.177 97.899,136.930 98.698,137.487 99.245 C 138.755 100.490,138.754 100.500,137.292 100.498 L 136.083 100.496 134.442 98.743 L 132.800 96.991 130.525 97.037 L 128.250 97.083 128.203 98.792 L 128.155 100.500 127.078 100.500 L 126.000 100.500 126.000 94.735 L 126.000 88.971 130.208 89.040 C 133.761 89.098,134.546 89.157,135.250 89.415 M150.000 92.134 L 150.083 95.184 154.083 92.094 L 158.083 89.003 159.292 89.001 C 160.879 89.000,160.955 88.891,157.421 91.667 C 155.730 92.996,154.343 94.132,154.339 94.193 C 154.336 94.253,155.833 95.666,157.667 97.333 C 159.500 99.001,161.000 100.395,161.000 100.432 C 161.000 100.470,160.417 100.500,159.705 100.500 L 158.411 100.500 155.537 97.994 L 152.663 95.488 151.332 96.501 L 150.000 97.515 150.000 99.007 L 150.000 100.500 148.833 100.500 L 147.667 100.500 147.667 94.742 L 147.667 88.985 148.792 89.034 L 149.917 89.083 150.000 92.134 M165.500 94.750 L 165.500 100.500 164.333 100.500 L 163.167 100.500 163.167 94.750 L 163.167 89.000 164.333 89.000 L 165.500 89.000 165.500 94.750 M180.500 89.750 L 180.500 90.500 177.917 90.500 L 175.333 90.500 175.333 95.500 L 175.333 100.500 174.167 100.500 L 173.000 100.500 173.000 95.500 L 173.000 90.500 170.417 90.500 L 167.833 90.500 167.833 89.750 L 167.833 89.000 174.167 89.000 L 180.500 89.000 180.500 89.750 M200.500 91.417 L 200.500 93.833 204.833 93.833 L 209.167 93.833 209.167 91.409 L 209.167 88.985 210.292 89.034 L 211.417 89.083 211.417 94.750 L 211.417 100.417 210.292 100.466 L 209.167 100.515 209.167 98.008 L 209.167 95.500 204.833 95.500 L 200.500 95.500 200.500 98.000 L 200.500 100.500 199.333 100.500 L 198.167 100.500 198.167 94.861 C 198.167 88.483,198.054 89.000,199.444 89.000 L 200.500 89.000 200.500 91.417 M226.801 89.792 L 226.852 90.500 222.504 90.500 L 218.155 90.500 218.203 92.208 L 218.250 93.917 222.051 93.961 L 225.852 94.006 225.801 94.711 L 225.750 95.417 221.958 95.461 L 218.167 95.506 218.167 97.250 L 218.167 98.995 222.625 99.039 L 227.083 99.083 227.135 99.792 L 227.186 100.500 221.593 100.500 L 216.000 100.500 216.000 94.748 L 216.000 88.995 221.375 89.039 L 226.750 89.083 226.801 89.792 M236.790 93.155 L 241.250 97.309 241.295 93.155 L 241.339 89.000 242.503 89.000 L 243.667 89.000 243.667 94.750 L 243.667 100.500 242.701 100.500 L 241.735 100.500 237.326 96.397 L 232.917 92.294 232.833 96.355 L 232.750 100.417 231.625 100.466 L 230.500 100.515 230.500 94.758 L 230.500 89.000 231.415 89.000 L 232.330 89.000 236.790 93.155 M279.615 94.667 C 281.476 97.737,282.999 100.306,282.999 100.375 C 283.000 100.444,282.480 100.500,281.844 100.500 L 280.689 100.500 279.886 99.084 L 279.083 97.669 275.061 97.668 L 271.038 97.667 270.227 99.083 L 269.417 100.499 268.189 100.499 L 266.962 100.500 267.203 100.125 C 267.336 99.919,268.820 97.462,270.500 94.667 C 274.241 88.443,273.802 88.974,275.148 89.035 L 276.231 89.083 279.615 94.667 M294.421 89.182 C 297.606 89.770,298.781 92.108,296.798 93.908 L 296.072 94.565 296.911 94.991 C 299.316 96.212,299.004 98.975,296.342 100.036 C 295.473 100.382,295.110 100.408,290.375 100.465 L 285.333 100.526 285.333 94.874 C 285.333 91.766,285.383 89.172,285.444 89.111 C 285.629 88.926,293.367 88.987,294.421 89.182 M304.000 94.758 L 304.000 100.515 302.875 100.466 L 301.750 100.417 301.706 94.918 C 301.654 88.440,301.540 89.000,302.911 89.000 L 304.000 89.000 304.000 94.758 M314.924 93.174 L 319.417 97.347 319.461 93.166 L 319.506 88.985 320.628 89.034 L 321.750 89.083 321.794 94.792 L 321.838 100.500 320.857 100.500 L 319.876 100.500 315.396 96.330 L 310.917 92.159 310.872 96.337 L 310.828 100.515 309.705 100.466 L 308.583 100.417 308.539 94.918 C 308.488 88.518,308.406 89.000,309.544 89.000 L 310.431 89.000 314.924 93.174 M337.000 89.747 L 337.000 90.494 332.708 90.539 L 328.417 90.583 328.417 92.250 L 328.417 93.917 332.218 93.961 L 336.019 94.006 335.968 94.711 L 335.917 95.417 332.119 95.461 L 328.322 95.506 328.369 97.211 L 328.417 98.917 332.833 99.000 L 337.250 99.083 337.301 99.792 L 337.352 100.500 331.760 100.500 L 326.167 100.500 326.167 94.750 L 326.167 89.000 331.583 89.000 L 337.000 89.000 337.000 89.747 M351.333 89.750 L 351.333 90.500 348.750 90.500 L 346.167 90.500 346.167 95.500 L 346.167 100.500 345.000 100.500 L 343.833 100.500 343.833 95.504 L 343.833 90.508 341.208 90.463 L 338.583 90.417 338.529 89.944 C 338.416 88.953,338.097 89.000,344.995 89.000 L 351.333 89.000 351.333 89.750 M362.871 89.452 C 366.610 90.838,366.981 94.716,363.527 96.297 L 362.635 96.705 363.358 97.478 C 363.755 97.902,364.566 98.756,365.161 99.375 L 366.241 100.500 364.912 100.489 L 363.583 100.477 362.000 98.747 L 360.417 97.017 358.125 97.009 L 355.833 97.000 355.833 98.750 L 355.833 100.500 354.667 100.500 L 353.500 100.500 353.500 94.735 L 353.500 88.971 357.708 89.034 C 361.494 89.091,362.013 89.133,362.871 89.452 M371.583 91.916 C 372.867 93.517,373.971 94.828,374.038 94.830 C 374.105 94.832,375.228 93.521,376.533 91.917 L 378.906 89.000 379.953 89.000 C 381.323 89.000,381.428 88.782,378.083 92.895 L 375.167 96.483 375.167 98.491 L 375.167 100.500 374.000 100.500 L 372.833 100.500 372.833 98.514 L 372.833 96.529 369.833 92.833 C 368.183 90.801,366.833 89.107,366.833 89.069 C 366.833 89.031,367.377 89.001,368.042 89.002 L 369.250 89.005 371.583 91.916 M27.883 90.846 C 23.799 92.141,23.336 96.685,27.115 98.380 C 31.697 100.435,37.040 97.708,36.016 93.838 C 35.315 91.185,31.381 89.738,27.883 90.846 M73.667 94.748 L 73.667 99.037 76.708 98.960 C 81.801 98.832,84.119 97.357,83.777 94.464 C 83.455 91.749,81.511 90.683,76.625 90.543 L 73.667 90.459 73.667 94.748 M94.289 90.681 C 90.692 91.529,89.274 95.141,91.637 97.436 C 94.501 100.217,100.963 99.230,101.973 95.857 C 103.002 92.424,98.827 89.612,94.289 90.681 M112.456 90.681 C 107.740 91.792,107.354 97.198,111.888 98.642 C 116.944 100.253,121.778 96.965,119.899 93.193 C 118.851 91.091,115.507 89.962,112.456 90.681 M128.278 90.611 C 128.217 90.672,128.167 91.797,128.167 93.111 L 128.167 95.500 130.720 95.500 C 134.594 95.500,135.798 94.974,135.950 93.216 C 136.071 91.810,135.273 91.035,133.323 90.665 C 132.350 90.480,128.450 90.439,128.278 90.611 M287.667 92.268 L 287.667 94.037 290.708 93.966 C 294.572 93.877,295.500 93.520,295.500 92.122 C 295.500 90.897,294.283 90.500,290.522 90.500 L 287.667 90.500 287.667 92.268 M355.833 92.980 L 355.833 95.500 358.303 95.500 C 362.208 95.500,363.500 94.873,363.500 92.978 C 363.500 91.212,362.382 90.673,358.458 90.545 L 355.833 90.460 355.833 92.980 M273.551 93.385 C 272.800 94.690,272.136 95.887,272.075 96.045 C 271.973 96.312,272.196 96.333,275.066 96.333 C 276.771 96.333,278.167 96.291,278.167 96.239 C 278.167 96.056,275.131 91.000,275.025 91.006 C 274.965 91.009,274.302 92.080,273.551 93.385 M287.667 97.356 L 287.667 99.212 290.958 99.119 C 295.314 98.996,296.233 98.670,296.233 97.250 C 296.233 95.822,295.258 95.500,290.939 95.500 L 287.667 95.500 287.667 97.356 " stroke="none" fill="#fbfbfb" fill-rule="evenodd"></path><path id="path2" d="M248.208 12.788 C 248.552 12.824,249.115 12.824,249.458 12.788 C 249.802 12.752,249.521 12.723,248.833 12.723 C 248.146 12.723,247.865 12.752,248.208 12.788 M260.500 15.083 C 260.811 15.404,261.103 15.667,261.149 15.667 C 261.195 15.667,260.978 15.404,260.667 15.083 C 260.356 14.762,260.064 14.500,260.018 14.500 C 259.972 14.500,260.189 14.762,260.500 15.083 M262.709 20.250 C 262.711 20.617,262.745 20.747,262.785 20.540 C 262.824 20.332,262.823 20.032,262.781 19.873 C 262.739 19.714,262.707 19.883,262.709 20.250 M34.078 22.375 L 33.083 23.417 34.125 22.422 C 34.698 21.875,35.167 21.406,35.167 21.380 C 35.167 21.257,35.002 21.407,34.078 22.375 M350.494 23.125 L 349.583 24.083 350.542 23.172 C 351.432 22.326,351.576 22.167,351.453 22.167 C 351.427 22.167,350.995 22.598,350.494 23.125 M34.831 25.292 L 32.583 27.583 34.875 25.336 C 36.135 24.099,37.167 23.068,37.167 23.044 C 37.167 22.924,36.919 23.163,34.831 25.292 M220.333 24.417 C 219.650 25.104,219.129 25.667,219.175 25.667 C 219.221 25.667,219.817 25.104,220.500 24.417 C 221.183 23.729,221.704 23.167,221.658 23.167 C 221.612 23.167,221.016 23.729,220.333 24.417 M30.994 25.458 L 30.083 26.417 31.042 25.506 C 31.932 24.659,32.076 24.500,31.953 24.500 C 31.927 24.500,31.495 24.931,30.994 25.458 M347.577 26.208 L 346.750 27.083 347.625 26.256 C 348.106 25.801,348.500 25.408,348.500 25.381 C 348.500 25.257,348.346 25.395,347.577 26.208 M327.906 26.375 L 327.417 26.917 327.958 26.427 C 328.463 25.971,328.577 25.833,328.448 25.833 C 328.419 25.833,328.175 26.077,327.906 26.375 M343.580 30.375 L 342.083 31.917 343.625 30.420 C 345.057 29.030,345.243 28.833,345.122 28.833 C 345.097 28.833,344.403 29.527,343.580 30.375 M253.163 30.958 L 251.750 32.417 253.208 31.004 C 254.563 29.691,254.743 29.500,254.621 29.500 C 254.596 29.500,253.940 30.156,253.163 30.958 M257.161 30.958 L 256.250 31.917 257.208 31.006 C 258.099 30.159,258.243 30.000,258.119 30.000 C 258.093 30.000,257.662 30.431,257.161 30.958 M56.996 33.125 L 55.583 34.583 57.042 33.170 C 57.844 32.393,58.500 31.737,58.500 31.712 C 58.500 31.591,58.309 31.771,56.996 33.125 M215.555 34.583 C 215.555 35.225,215.586 35.467,215.622 35.121 C 215.658 34.775,215.657 34.250,215.620 33.955 C 215.583 33.659,215.554 33.942,215.555 34.583 M335.832 37.958 L 332.417 41.417 335.875 38.002 C 337.777 36.123,339.333 34.567,339.333 34.543 C 339.333 34.425,339.005 34.745,335.832 37.958 M58.573 35.208 L 58.083 35.750 58.625 35.260 C 59.130 34.804,59.243 34.667,59.115 34.667 C 59.086 34.667,58.842 34.910,58.573 35.208 M337.831 38.125 C 336.103 39.886,336.007 40.003,337.417 38.627 C 338.425 37.644,339.325 36.819,339.417 36.794 C 339.508 36.770,339.565 36.694,339.542 36.625 C 339.519 36.556,339.572 36.500,339.661 36.500 C 339.749 36.500,339.902 36.350,340.000 36.167 C 340.285 35.633,340.194 35.716,337.831 38.125 M251.875 36.786 C 252.127 36.824,252.540 36.824,252.792 36.786 C 253.044 36.748,252.838 36.717,252.333 36.717 C 251.829 36.717,251.623 36.748,251.875 36.786 M260.500 37.917 C 260.811 38.237,261.103 38.500,261.149 38.500 C 261.195 38.500,260.978 38.237,260.667 37.917 C 260.356 37.596,260.064 37.333,260.018 37.333 C 259.972 37.333,260.189 37.596,260.500 37.917 M232.740 38.542 L 232.250 39.083 232.792 38.594 C 233.297 38.138,233.410 38.000,233.281 38.000 C 233.252 38.000,233.009 38.244,232.740 38.542 M231.158 40.292 L 230.583 40.917 231.208 40.342 C 231.790 39.808,231.910 39.667,231.783 39.667 C 231.755 39.667,231.474 39.948,231.158 40.292 M332.331 43.625 L 330.250 45.750 332.375 43.669 C 334.349 41.736,334.576 41.500,334.456 41.500 C 334.432 41.500,333.475 42.456,332.331 43.625 M227.248 44.375 L 225.083 46.583 227.292 44.419 C 229.343 42.409,229.576 42.167,229.456 42.167 C 229.432 42.167,228.438 43.160,227.248 44.375 M221.832 45.958 L 218.750 49.083 221.875 46.002 C 224.778 43.139,225.075 42.833,224.957 42.833 C 224.933 42.833,223.527 44.240,221.832 45.958 M40.708 44.115 C 40.869 44.157,41.131 44.157,41.292 44.115 C 41.452 44.073,41.321 44.039,41.000 44.039 C 40.679 44.039,40.548 44.073,40.708 44.115 M205.131 46.290 C 205.615 46.324,206.365 46.323,206.797 46.289 C 207.230 46.255,206.833 46.227,205.917 46.228 C 205.000 46.228,204.646 46.256,205.131 46.290 M325.497 48.125 L 323.750 49.917 325.542 48.170 C 326.527 47.209,327.333 46.403,327.333 46.378 C 327.333 46.258,327.120 46.461,325.497 48.125 M328.167 47.583 C 327.762 47.996,327.468 48.333,327.514 48.333 C 327.560 48.333,327.928 47.996,328.333 47.583 C 328.738 47.171,329.032 46.833,328.986 46.833 C 328.940 46.833,328.572 47.171,328.167 47.583 M203.625 47.618 C 203.831 47.657,204.169 47.657,204.375 47.618 C 204.581 47.578,204.412 47.545,204.000 47.545 C 203.588 47.545,203.419 47.578,203.625 47.618 M206.375 47.619 C 206.627 47.658,207.040 47.658,207.292 47.619 C 207.544 47.581,207.338 47.550,206.833 47.550 C 206.329 47.550,206.123 47.581,206.375 47.619 M117.705 49.333 C 117.705 49.654,117.740 49.785,117.782 49.625 C 117.823 49.465,117.823 49.202,117.782 49.042 C 117.740 48.881,117.705 49.012,117.705 49.333 M325.991 49.625 L 325.417 50.250 326.042 49.676 C 326.385 49.360,326.667 49.078,326.667 49.051 C 326.667 48.923,326.526 49.043,325.991 49.625 M194.073 50.042 L 193.583 50.583 194.125 50.094 C 194.423 49.825,194.667 49.581,194.667 49.552 C 194.667 49.423,194.529 49.537,194.073 50.042 M104.842 49.907 C 104.732 50.039,104.479 50.178,104.280 50.217 C 103.927 50.286,103.927 50.289,104.266 50.311 C 104.458 50.323,104.751 50.183,104.917 50.000 C 105.083 49.817,105.178 49.667,105.130 49.667 C 105.081 49.667,104.951 49.775,104.842 49.907 M108.742 50.542 L 108.083 51.250 108.792 50.591 C 109.450 49.978,109.577 49.833,109.450 49.833 C 109.423 49.833,109.105 50.152,108.742 50.542 M127.240 50.542 L 126.750 51.083 127.292 50.594 C 127.590 50.325,127.833 50.081,127.833 50.052 C 127.833 49.923,127.696 50.037,127.240 50.542 M130.328 51.958 L 129.417 52.917 130.375 52.006 C 130.902 51.505,131.333 51.073,131.333 51.047 C 131.333 50.924,131.174 51.068,130.328 51.958 M355.500 51.917 C 355.095 52.329,354.801 52.667,354.847 52.667 C 354.893 52.667,355.262 52.329,355.667 51.917 C 356.072 51.504,356.365 51.167,356.319 51.167 C 356.274 51.167,355.905 51.504,355.500 51.917 M69.406 51.875 L 68.917 52.417 69.458 51.927 C 69.756 51.658,70.000 51.414,70.000 51.385 C 70.000 51.257,69.862 51.370,69.406 51.875 M257.078 52.542 L 256.083 53.583 257.125 52.589 C 257.698 52.041,258.167 51.573,258.167 51.547 C 258.167 51.424,258.002 51.574,257.078 52.542 M321.075 52.375 L 320.417 53.083 321.125 52.425 C 321.515 52.062,321.833 51.743,321.833 51.716 C 321.833 51.590,321.688 51.716,321.075 52.375 M279.961 51.954 C 280.261 51.991,280.711 51.990,280.961 51.952 C 281.212 51.914,280.967 51.884,280.417 51.885 C 279.867 51.886,279.662 51.917,279.961 51.954 M218.494 52.958 L 217.583 53.917 218.542 53.006 C 219.432 52.159,219.576 52.000,219.453 52.000 C 219.427 52.000,218.995 52.431,218.494 52.958 M357.406 52.875 L 356.917 53.417 357.458 52.927 C 357.963 52.471,358.077 52.333,357.948 52.333 C 357.919 52.333,357.675 52.577,357.406 52.875 M131.329 53.792 L 130.250 54.917 131.375 53.838 C 131.994 53.245,132.500 52.739,132.500 52.713 C 132.500 52.590,132.330 52.747,131.329 53.792 M213.744 54.042 L 212.917 54.917 213.792 54.090 C 214.273 53.635,214.667 53.241,214.667 53.215 C 214.667 53.090,214.512 53.229,213.744 54.042 M192.042 54.917 C 192.044 55.283,192.078 55.414,192.118 55.206 C 192.158 54.999,192.156 54.699,192.115 54.540 C 192.073 54.380,192.040 54.550,192.042 54.917 M193.381 55.083 C 193.382 55.542,193.415 55.709,193.453 55.456 C 193.491 55.203,193.490 54.828,193.451 54.623 C 193.411 54.418,193.380 54.625,193.381 55.083 M310.883 55.667 C 310.883 56.171,310.915 56.377,310.953 56.125 C 310.991 55.873,310.991 55.460,310.953 55.208 C 310.915 54.956,310.883 55.163,310.883 55.667 M344.240 55.708 L 343.750 56.250 344.292 55.760 C 344.590 55.491,344.833 55.248,344.833 55.219 C 344.833 55.090,344.696 55.203,344.240 55.708 M112.461 55.454 C 112.761 55.491,113.211 55.490,113.461 55.452 C 113.712 55.414,113.467 55.384,112.917 55.385 C 112.367 55.386,112.162 55.417,112.461 55.454 M135.553 57.833 C 135.553 58.429,135.584 58.673,135.621 58.375 C 135.658 58.077,135.658 57.590,135.621 57.292 C 135.584 56.994,135.553 57.237,135.553 57.833 M58.208 57.955 C 58.552 57.991,59.115 57.991,59.458 57.955 C 59.802 57.919,59.521 57.889,58.833 57.889 C 58.146 57.889,57.865 57.919,58.208 57.955 M105.288 58.287 C 105.584 58.324,106.109 58.324,106.455 58.288 C 106.800 58.252,106.558 58.222,105.917 58.221 C 105.275 58.221,104.992 58.250,105.288 58.287 M340.495 59.292 L 339.417 60.417 340.542 59.338 C 341.160 58.745,341.667 58.239,341.667 58.213 C 341.667 58.090,341.497 58.247,340.495 59.292 M281.042 59.286 C 281.294 59.324,281.706 59.324,281.958 59.286 C 282.210 59.248,282.004 59.217,281.500 59.217 C 280.996 59.217,280.790 59.248,281.042 59.286 M116.740 59.875 L 116.250 60.417 116.792 59.927 C 117.090 59.658,117.333 59.414,117.333 59.385 C 117.333 59.257,117.196 59.370,116.740 59.875 M358.333 60.250 C 358.644 60.571,358.936 60.833,358.982 60.833 C 359.028 60.833,358.811 60.571,358.500 60.250 C 358.189 59.929,357.897 59.667,357.851 59.667 C 357.805 59.667,358.022 59.929,358.333 60.250 M245.224 60.542 C 245.182 60.610,246.070 60.654,247.198 60.639 C 249.317 60.610,249.117 60.540,246.692 60.462 C 245.927 60.437,245.266 60.473,245.224 60.542 M246.632 62.124 C 247.208 62.156,248.108 62.156,248.632 62.123 C 249.155 62.090,248.683 62.063,247.583 62.064 C 246.483 62.064,246.055 62.091,246.632 62.124 M77.042 62.286 C 77.294 62.324,77.706 62.324,77.958 62.286 C 78.210 62.248,78.004 62.217,77.500 62.217 C 76.996 62.217,76.790 62.248,77.042 62.286 M138.042 62.286 C 138.294 62.324,138.706 62.324,138.958 62.286 C 139.210 62.248,139.004 62.217,138.500 62.217 C 137.996 62.217,137.790 62.248,138.042 62.286 M363.208 62.286 C 363.460 62.324,363.873 62.324,364.125 62.286 C 364.377 62.248,364.171 62.217,363.667 62.217 C 363.162 62.217,362.956 62.248,363.208 62.286 M208.792 67.118 C 208.998 67.157,209.335 67.157,209.542 67.118 C 209.748 67.078,209.579 67.045,209.167 67.045 C 208.754 67.045,208.585 67.078,208.792 67.118 M213.042 67.119 C 213.294 67.158,213.706 67.158,213.958 67.119 C 214.210 67.081,214.004 67.050,213.500 67.050 C 212.996 67.050,212.790 67.081,213.042 67.119 M209.292 68.451 C 209.498 68.491,209.835 68.491,210.042 68.451 C 210.248 68.411,210.079 68.379,209.667 68.379 C 209.254 68.379,209.085 68.411,209.292 68.451 M215.127 68.451 C 215.334 68.491,215.634 68.490,215.794 68.448 C 215.953 68.406,215.783 68.374,215.417 68.375 C 215.050 68.377,214.920 68.411,215.127 68.451 M14.333 73.417 C 14.644 73.737,14.936 74.000,14.982 74.000 C 15.028 74.000,14.811 73.737,14.500 73.417 C 14.189 73.096,13.897 72.833,13.851 72.833 C 13.805 72.833,14.022 73.096,14.333 73.417 M19.958 74.621 C 20.256 74.658,20.744 74.658,21.042 74.621 C 21.340 74.584,21.096 74.553,20.500 74.553 C 19.904 74.553,19.660 74.584,19.958 74.621 M29.708 88.955 C 30.052 88.991,30.615 88.991,30.958 88.955 C 31.302 88.919,31.021 88.889,30.333 88.889 C 29.646 88.889,29.365 88.919,29.708 88.955 M95.708 88.955 C 96.052 88.991,96.615 88.991,96.958 88.955 C 97.302 88.919,97.021 88.889,96.333 88.889 C 95.646 88.889,95.365 88.919,95.708 88.955 M113.875 88.955 C 114.219 88.991,114.781 88.991,115.125 88.955 C 115.469 88.919,115.188 88.889,114.500 88.889 C 113.813 88.889,113.531 88.919,113.875 88.955 M188.796 88.956 C 189.188 88.991,189.788 88.990,190.129 88.954 C 190.471 88.919,190.150 88.890,189.417 88.890 C 188.683 88.891,188.404 88.920,188.796 88.956 M260.208 88.955 C 260.552 88.991,261.115 88.991,261.458 88.955 C 261.802 88.919,261.521 88.889,260.833 88.889 C 260.146 88.889,259.865 88.919,260.208 88.955 M52.241 89.213 C 52.196 89.330,52.180 90.998,52.205 92.921 L 52.251 96.417 52.334 92.708 C 52.415 89.076,52.407 88.780,52.241 89.213 M78.708 89.115 C 78.869 89.157,79.131 89.157,79.292 89.115 C 79.452 89.073,79.321 89.039,79.000 89.039 C 78.679 89.039,78.548 89.073,78.708 89.115 M132.625 89.118 C 132.831 89.157,133.169 89.157,133.375 89.118 C 133.581 89.078,133.412 89.045,133.000 89.045 C 132.587 89.045,132.419 89.078,132.625 89.118 M149.799 92.182 C 149.843 95.071,149.938 95.671,150.266 95.141 C 150.340 95.022,150.312 94.994,150.192 95.067 C 150.050 95.156,150.000 94.412,150.000 92.186 C 150.000 90.536,149.944 89.151,149.875 89.109 C 149.806 89.066,149.772 90.449,149.799 92.182 M165.292 92.792 C 165.316 94.877,165.356 97.483,165.381 98.583 C 165.407 99.683,165.444 97.977,165.464 94.792 C 165.484 91.606,165.444 89.000,165.375 89.000 C 165.306 89.000,165.269 90.706,165.292 92.792 M293.042 89.115 C 293.202 89.157,293.465 89.157,293.625 89.115 C 293.785 89.073,293.654 89.039,293.333 89.039 C 293.012 89.039,292.881 89.073,293.042 89.115 M336.881 89.750 C 336.882 90.208,336.915 90.376,336.953 90.123 C 336.991 89.869,336.990 89.494,336.951 89.289 C 336.911 89.084,336.880 89.292,336.881 89.750 M338.566 89.236 C 338.516 89.366,338.502 89.684,338.535 89.944 C 338.584 90.330,338.610 90.286,338.677 89.708 C 338.761 88.980,338.724 88.823,338.566 89.236 M360.125 89.118 C 360.331 89.157,360.669 89.157,360.875 89.118 C 361.081 89.078,360.912 89.045,360.500 89.045 C 360.087 89.045,359.919 89.078,360.125 89.118 M198.242 94.833 C 198.242 97.996,198.264 99.290,198.291 97.708 C 198.319 96.127,198.319 93.540,198.291 91.958 C 198.264 90.377,198.242 91.671,198.242 94.833 M211.408 94.750 C 211.408 97.867,211.431 99.118,211.458 97.531 C 211.486 95.944,211.485 93.394,211.458 91.864 C 211.431 90.335,211.408 91.633,211.408 94.750 M226.712 89.833 C 226.712 90.246,226.745 90.415,226.784 90.208 C 226.824 90.002,226.824 89.665,226.784 89.458 C 226.745 89.252,226.712 89.421,226.712 89.833 M233.083 89.833 C 233.441 90.200,233.772 90.500,233.818 90.500 C 233.863 90.500,233.608 90.200,233.250 89.833 C 232.892 89.467,232.562 89.167,232.516 89.167 C 232.470 89.167,232.725 89.467,233.083 89.833 M285.408 94.833 C 285.408 97.996,285.431 99.290,285.458 97.708 C 285.485 96.127,285.485 93.540,285.458 91.958 C 285.431 90.377,285.408 91.671,285.408 94.833 M301.741 94.750 C 301.742 97.867,301.764 99.118,301.791 97.531 C 301.819 95.944,301.819 93.394,301.791 91.864 C 301.764 90.335,301.741 91.633,301.741 94.750 M308.575 94.750 C 308.575 97.867,308.597 99.118,308.625 97.531 C 308.652 95.944,308.652 93.394,308.625 91.864 C 308.597 90.335,308.575 91.633,308.575 94.750 M321.742 94.833 C 321.742 97.996,321.764 99.290,321.791 97.708 C 321.819 96.127,321.819 93.540,321.791 91.958 C 321.764 90.377,321.742 91.671,321.742 94.833 M311.917 90.500 C 312.275 90.867,312.605 91.167,312.651 91.167 C 312.697 91.167,312.441 90.867,312.083 90.500 C 311.725 90.133,311.395 89.833,311.349 89.833 C 311.303 89.833,311.559 90.133,311.917 90.500 M136.833 90.219 C 136.833 90.248,137.077 90.491,137.375 90.760 L 137.917 91.250 137.427 90.708 C 136.971 90.203,136.833 90.090,136.833 90.219 M29.958 90.451 C 30.165 90.491,30.502 90.491,30.708 90.451 C 30.915 90.411,30.746 90.379,30.333 90.379 C 29.921 90.379,29.752 90.411,29.958 90.451 M95.877 90.453 C 96.131 90.491,96.506 90.490,96.711 90.451 C 96.916 90.411,96.708 90.380,96.250 90.381 C 95.792 90.382,95.624 90.415,95.877 90.453 M114.125 90.451 C 114.331 90.491,114.669 90.491,114.875 90.451 C 115.081 90.411,114.912 90.379,114.500 90.379 C 114.087 90.379,113.919 90.411,114.125 90.451 M189.125 90.451 C 189.331 90.491,189.669 90.491,189.875 90.451 C 190.081 90.411,189.912 90.379,189.500 90.379 C 189.088 90.379,188.919 90.411,189.125 90.451 M260.544 90.453 C 260.797 90.491,261.172 90.490,261.377 90.451 C 261.582 90.411,261.375 90.380,260.917 90.381 C 260.458 90.382,260.291 90.415,260.544 90.453 M288.966 90.457 C 289.727 90.488,290.927 90.488,291.633 90.457 C 292.339 90.426,291.717 90.401,290.250 90.401 C 288.783 90.401,288.206 90.427,288.966 90.457 M63.907 95.500 C 63.907 98.296,63.930 99.440,63.958 98.042 C 63.986 96.644,63.986 94.356,63.958 92.958 C 63.930 91.560,63.907 92.704,63.907 95.500 M173.074 95.500 C 173.074 98.296,173.097 99.440,173.125 98.042 C 173.153 96.644,173.153 94.356,173.125 92.958 C 173.097 91.560,173.074 92.704,173.074 95.500 M346.074 95.500 C 346.074 98.296,346.097 99.440,346.125 98.042 C 346.153 96.644,346.153 94.356,346.125 92.958 C 346.097 91.560,346.074 92.704,346.074 95.500 M355.743 93.041 L 355.750 95.583 358.042 95.591 L 360.334 95.598 358.088 95.544 L 355.842 95.491 355.789 92.995 L 355.737 90.500 355.743 93.041 M23.658 91.292 L 23.083 91.917 23.708 91.342 C 24.290 90.808,24.410 90.667,24.283 90.667 C 24.255 90.667,23.974 90.948,23.658 91.292 M107.824 91.292 L 107.250 91.917 107.875 91.342 C 108.457 90.808,108.577 90.667,108.449 90.667 C 108.422 90.667,108.140 90.948,107.824 91.292 M121.000 91.250 C 121.311 91.571,121.603 91.833,121.649 91.833 C 121.695 91.833,121.478 91.571,121.167 91.250 C 120.856 90.929,120.564 90.667,120.518 90.667 C 120.472 90.667,120.689 90.929,121.000 91.250 M235.493 92.042 C 236.184 92.778,236.333 92.910,236.333 92.785 C 236.333 92.758,235.977 92.402,235.542 91.993 L 234.750 91.250 235.493 92.042 M314.250 92.667 C 314.608 93.033,314.938 93.333,314.984 93.333 C 315.030 93.333,314.775 93.033,314.417 92.667 C 314.059 92.300,313.728 92.000,313.682 92.000 C 313.637 92.000,313.892 92.300,314.250 92.667 M232.705 96.292 L 232.744 100.417 232.792 96.352 L 232.839 92.287 233.211 92.602 L 233.583 92.917 233.266 92.542 C 232.701 91.874,232.666 92.107,232.705 96.292 M311.000 92.219 C 311.000 92.248,311.244 92.491,311.542 92.760 L 312.083 93.250 311.594 92.708 C 311.138 92.203,311.000 92.090,311.000 92.219 M363.542 93.083 C 363.544 93.450,363.578 93.580,363.618 93.373 C 363.658 93.166,363.656 92.866,363.615 92.706 C 363.573 92.547,363.540 92.717,363.542 93.083 M237.917 94.333 C 238.275 94.700,238.605 95.000,238.651 95.000 C 238.697 95.000,238.441 94.700,238.083 94.333 C 237.725 93.967,237.395 93.667,237.349 93.667 C 237.303 93.667,237.559 93.967,237.917 94.333 M202.625 93.958 C 203.840 93.986,205.827 93.986,207.042 93.958 C 208.256 93.929,207.262 93.906,204.833 93.906 C 202.404 93.906,201.410 93.929,202.625 93.958 M122.548 94.750 C 122.549 95.208,122.581 95.376,122.620 95.123 C 122.658 94.869,122.657 94.494,122.617 94.289 C 122.578 94.084,122.546 94.292,122.548 94.750 M235.333 94.583 C 235.644 94.904,235.936 95.167,235.982 95.167 C 236.028 95.167,235.811 94.904,235.500 94.583 C 235.189 94.263,234.897 94.000,234.851 94.000 C 234.805 94.000,235.022 94.263,235.333 94.583 M90.375 94.750 C 90.377 95.117,90.411 95.247,90.451 95.040 C 90.491 94.832,90.490 94.532,90.448 94.373 C 90.406 94.214,90.374 94.383,90.375 94.750 M183.542 94.750 C 183.544 95.117,183.578 95.247,183.618 95.040 C 183.658 94.832,183.656 94.532,183.615 94.373 C 183.573 94.214,183.540 94.383,183.542 94.750 M252.709 94.750 C 252.711 95.117,252.745 95.247,252.785 95.040 C 252.824 94.832,252.823 94.532,252.781 94.373 C 252.739 94.214,252.707 94.383,252.709 94.750 M108.539 94.833 C 108.539 95.154,108.573 95.285,108.615 95.125 C 108.657 94.965,108.657 94.702,108.615 94.542 C 108.573 94.381,108.539 94.513,108.539 94.833 M313.333 94.385 C 313.333 94.414,313.577 94.658,313.875 94.927 L 314.417 95.417 313.927 94.875 C 313.471 94.370,313.333 94.257,313.333 94.385 M316.750 95.000 C 317.108 95.367,317.438 95.667,317.484 95.667 C 317.530 95.667,317.275 95.367,316.917 95.000 C 316.559 94.633,316.228 94.333,316.182 94.333 C 316.137 94.333,316.392 94.633,316.750 95.000 M202.625 95.458 C 203.840 95.486,205.827 95.486,207.042 95.458 C 208.256 95.429,207.262 95.406,204.833 95.406 C 202.404 95.406,201.410 95.429,202.625 95.458 M220.051 95.458 C 221.133 95.487,222.858 95.487,223.884 95.458 C 224.910 95.428,224.025 95.405,221.917 95.405 C 219.808 95.405,218.969 95.429,220.051 95.458 M289.217 95.458 C 290.116 95.488,291.541 95.488,292.384 95.457 C 293.227 95.427,292.492 95.403,290.750 95.403 C 289.008 95.403,288.318 95.428,289.217 95.458 M330.218 95.458 C 331.300 95.487,333.025 95.487,334.051 95.458 C 335.077 95.428,334.192 95.405,332.083 95.405 C 329.975 95.405,329.135 95.429,330.218 95.458 M129.292 95.624 C 129.956 95.655,131.044 95.655,131.708 95.624 C 132.373 95.592,131.829 95.566,130.500 95.566 C 129.171 95.566,128.627 95.592,129.292 95.624 M155.833 95.719 C 155.833 95.748,156.077 95.991,156.375 96.260 L 156.917 96.750 156.427 96.208 C 155.971 95.703,155.833 95.590,155.833 95.719 M240.326 96.542 C 241.017 97.278,241.167 97.410,241.167 97.285 C 241.167 97.258,240.810 96.902,240.375 96.493 L 239.583 95.750 240.326 96.542 M237.667 96.750 C 237.978 97.071,238.270 97.333,238.315 97.333 C 238.361 97.333,238.144 97.071,237.833 96.750 C 237.522 96.429,237.230 96.167,237.185 96.167 C 237.139 96.167,237.356 96.429,237.667 96.750 M135.098 96.642 C 135.050 96.721,135.214 96.965,135.463 97.184 L 135.917 97.583 135.540 97.154 C 135.333 96.918,135.214 96.675,135.276 96.613 C 135.338 96.551,135.343 96.500,135.288 96.500 C 135.232 96.500,135.147 96.564,135.098 96.642 M318.500 96.552 C 318.500 96.581,318.744 96.825,319.042 97.094 L 319.583 97.583 319.094 97.042 C 318.638 96.537,318.500 96.423,318.500 96.552 M362.600 96.639 C 362.553 96.716,362.867 97.109,363.299 97.514 L 364.083 98.250 363.371 97.490 C 362.980 97.072,362.711 96.678,362.774 96.615 C 362.837 96.552,362.843 96.500,362.788 96.500 C 362.732 96.500,362.648 96.563,362.600 96.639 M375.064 98.500 C 375.064 99.646,375.091 100.115,375.123 99.542 C 375.156 98.969,375.156 98.031,375.123 97.458 C 375.091 96.885,375.064 97.354,375.064 98.500 M315.833 96.719 C 315.833 96.748,316.077 96.991,316.375 97.260 L 316.917 97.750 316.427 97.208 C 315.971 96.703,315.833 96.590,315.833 96.719 M372.897 98.583 C 372.897 99.683,372.924 100.112,372.957 99.535 C 372.990 98.959,372.989 98.059,372.956 97.535 C 372.923 97.012,372.897 97.483,372.897 98.583 M133.333 97.583 C 133.644 97.904,133.936 98.167,133.982 98.167 C 134.028 98.167,133.811 97.904,133.500 97.583 C 133.189 97.263,132.897 97.000,132.851 97.000 C 132.805 97.000,133.022 97.263,133.333 97.583 M355.729 98.750 C 355.729 99.758,355.757 100.149,355.790 99.619 C 355.823 99.088,355.823 98.263,355.789 97.786 C 355.756 97.308,355.729 97.742,355.729 98.750 M150.014 97.400 C 149.888 97.551,149.840 98.154,149.876 99.109 L 149.931 100.583 149.966 99.075 C 149.986 98.168,150.080 97.487,150.200 97.367 C 150.310 97.257,150.357 97.167,150.304 97.167 C 150.251 97.167,150.120 97.272,150.014 97.400 M157.667 97.385 C 157.667 97.414,157.910 97.658,158.208 97.927 L 158.750 98.417 158.260 97.875 C 157.804 97.370,157.667 97.257,157.667 97.385 M361.493 98.208 C 362.184 98.944,362.333 99.077,362.333 98.951 C 362.333 98.925,361.977 98.568,361.542 98.160 L 360.750 97.417 361.493 98.208 M254.167 98.250 C 254.478 98.571,254.770 98.833,254.815 98.833 C 254.861 98.833,254.644 98.571,254.333 98.250 C 254.022 97.929,253.730 97.667,253.685 97.667 C 253.639 97.667,253.856 97.929,254.167 98.250 M102.740 98.375 L 102.250 98.917 102.792 98.427 C 103.090 98.158,103.333 97.914,103.333 97.885 C 103.333 97.757,103.196 97.870,102.740 98.375 M240.083 99.000 C 240.441 99.367,240.772 99.667,240.818 99.667 C 240.863 99.667,240.608 99.367,240.250 99.000 C 239.892 98.633,239.562 98.333,239.516 98.333 C 239.470 98.333,239.725 98.633,240.083 99.000 M137.583 99.500 C 138.035 99.958,138.442 100.333,138.487 100.333 C 138.533 100.333,138.201 99.958,137.750 99.500 C 137.299 99.042,136.892 98.667,136.846 98.667 C 136.800 98.667,137.132 99.042,137.583 99.500 M318.667 99.417 C 318.978 99.737,319.270 100.000,319.315 100.000 C 319.361 100.000,319.144 99.737,318.833 99.417 C 318.522 99.096,318.230 98.833,318.185 98.833 C 318.139 98.833,318.356 99.096,318.667 99.417 M293.208 99.115 C 293.369 99.157,293.631 99.157,293.792 99.115 C 293.952 99.073,293.821 99.039,293.500 99.039 C 293.179 99.039,293.048 99.073,293.208 99.115 M227.045 99.833 C 227.045 100.246,227.078 100.415,227.118 100.208 C 227.157 100.002,227.157 99.665,227.118 99.458 C 227.078 99.252,227.045 99.421,227.045 99.833 M337.212 99.833 C 337.212 100.246,337.245 100.415,337.284 100.208 C 337.324 100.002,337.324 99.665,337.284 99.458 C 337.245 99.252,337.212 99.421,337.212 99.833 M135.167 99.552 C 135.167 99.581,135.410 99.825,135.708 100.094 L 136.250 100.583 135.760 100.042 C 135.304 99.537,135.167 99.423,135.167 99.552 " stroke="none" fill="#a3a3a3" fill-rule="evenodd"></path><path id="path3" d="M64.209 19.917 C 64.211 20.283,64.245 20.414,64.285 20.206 C 64.324 19.999,64.323 19.699,64.281 19.540 C 64.239 19.380,64.207 19.550,64.209 19.917 M32.491 23.958 L 31.917 24.583 32.542 24.009 C 33.123 23.474,33.243 23.333,33.116 23.333 C 33.088 23.333,32.807 23.615,32.491 23.958 M216.406 25.375 L 215.917 25.917 216.458 25.427 C 216.963 24.971,217.077 24.833,216.948 24.833 C 216.919 24.833,216.675 25.077,216.406 25.375 M341.573 32.375 L 341.083 32.917 341.625 32.427 C 342.130 31.971,342.243 31.833,342.115 31.833 C 342.086 31.833,341.842 32.077,341.573 32.375 M59.910 33.875 L 59.083 34.750 59.958 33.923 C 60.440 33.468,60.833 33.074,60.833 33.048 C 60.833 32.924,60.679 33.062,59.910 33.875 M334.991 40.958 L 334.417 41.583 335.042 41.009 C 335.623 40.474,335.743 40.333,335.616 40.333 C 335.588 40.333,335.307 40.615,334.991 40.958 M258.379 41.667 C 258.379 42.079,258.411 42.248,258.451 42.042 C 258.491 41.835,258.491 41.498,258.451 41.292 C 258.411 41.085,258.379 41.254,258.379 41.667 M331.079 42.708 L 329.750 44.083 331.125 42.754 C 331.881 42.023,332.500 41.404,332.500 41.379 C 332.500 41.257,332.314 41.431,331.079 42.708 M39.128 44.121 C 39.428 44.158,39.878 44.157,40.128 44.119 C 40.378 44.081,40.133 44.051,39.583 44.052 C 39.033 44.053,38.828 44.084,39.128 44.121 M222.910 48.542 L 222.083 49.417 222.958 48.590 C 223.440 48.135,223.833 47.741,223.833 47.715 C 223.833 47.590,223.679 47.729,222.910 48.542 M253.328 50.792 L 252.417 51.750 253.375 50.839 C 253.902 50.338,254.333 49.907,254.333 49.881 C 254.333 49.757,254.174 49.901,253.328 50.792 M215.833 51.917 C 215.150 52.604,214.629 53.167,214.675 53.167 C 214.721 53.167,215.317 52.604,216.000 51.917 C 216.683 51.229,217.204 50.667,217.158 50.667 C 217.112 50.667,216.516 51.229,215.833 51.917 M196.167 61.552 C 196.167 61.581,196.410 61.825,196.708 62.094 L 197.250 62.583 196.760 62.042 C 196.304 61.537,196.167 61.423,196.167 61.552 M42.622 89.119 L 43.660 89.182 43.710 92.675 L 43.760 96.167 43.755 92.625 L 43.750 89.083 42.667 89.069 L 41.583 89.055 42.622 89.119 M52.961 89.121 C 53.261 89.158,53.711 89.157,53.961 89.119 C 54.212 89.081,53.967 89.051,53.417 89.052 C 52.867 89.053,52.662 89.084,52.961 89.121 M59.708 89.125 C 61.427 89.152,64.240 89.152,65.958 89.125 C 67.677 89.098,66.271 89.076,62.833 89.076 C 59.396 89.076,57.990 89.098,59.708 89.125 M71.409 89.210 C 71.365 89.325,71.350 91.894,71.375 94.918 L 71.421 100.417 71.461 94.795 L 71.500 89.173 75.042 89.125 L 78.583 89.076 75.036 89.038 C 72.313 89.009,71.471 89.049,71.409 89.210 M127.717 89.124 C 128.616 89.154,130.041 89.154,130.884 89.124 C 131.727 89.094,130.992 89.069,129.250 89.069 C 127.508 89.070,126.818 89.094,127.717 89.124 M148.295 89.121 C 148.594 89.158,149.044 89.157,149.295 89.119 C 149.545 89.081,149.300 89.051,148.750 89.052 C 148.200 89.053,147.995 89.084,148.295 89.121 M158.621 89.120 C 158.917 89.157,159.442 89.158,159.788 89.122 C 160.134 89.086,159.892 89.055,159.250 89.055 C 158.608 89.054,158.325 89.083,158.621 89.120 M163.242 89.210 C 163.198 89.325,163.183 91.894,163.208 94.918 L 163.255 100.417 163.294 94.800 L 163.333 89.183 164.292 89.123 L 165.250 89.063 164.286 89.032 C 163.641 89.010,163.296 89.069,163.242 89.210 M171.042 89.125 C 172.760 89.152,175.573 89.152,177.292 89.125 C 179.010 89.098,177.604 89.076,174.167 89.076 C 170.729 89.076,169.323 89.098,171.042 89.125 M198.792 89.121 C 199.090 89.158,199.577 89.158,199.875 89.121 C 200.173 89.084,199.929 89.053,199.333 89.053 C 198.737 89.053,198.494 89.084,198.792 89.121 M209.792 89.121 C 210.090 89.158,210.577 89.158,210.875 89.121 C 211.173 89.084,210.929 89.053,210.333 89.053 C 209.737 89.053,209.494 89.084,209.792 89.121 M218.802 89.125 C 220.298 89.152,222.698 89.152,224.135 89.125 C 225.573 89.097,224.350 89.074,221.417 89.074 C 218.483 89.074,217.307 89.097,218.802 89.125 M231.044 89.120 C 231.297 89.158,231.672 89.157,231.877 89.117 C 232.082 89.078,231.875 89.046,231.417 89.048 C 230.958 89.049,230.791 89.081,231.044 89.120 M241.417 89.200 C 241.283 89.568,241.242 97.473,241.375 97.391 C 241.444 97.349,241.500 95.481,241.500 93.240 L 241.500 89.167 242.498 89.167 L 243.496 89.167 243.543 94.708 L 243.590 100.250 243.587 94.667 L 243.583 89.083 242.540 89.034 C 241.799 88.998,241.473 89.047,241.417 89.200 M274.458 89.121 C 274.756 89.158,275.244 89.158,275.542 89.121 C 275.840 89.084,275.596 89.053,275.000 89.053 C 274.404 89.053,274.160 89.084,274.458 89.121 M287.292 89.124 C 288.323 89.154,290.010 89.154,291.042 89.124 C 292.073 89.095,291.229 89.071,289.167 89.071 C 287.104 89.071,286.260 89.095,287.292 89.124 M302.292 89.121 C 302.590 89.158,303.077 89.158,303.375 89.121 C 303.673 89.084,303.429 89.053,302.833 89.053 C 302.237 89.053,301.994 89.084,302.292 89.121 M309.042 89.119 C 309.294 89.158,309.706 89.158,309.958 89.119 C 310.210 89.081,310.004 89.050,309.500 89.050 C 308.996 89.050,308.790 89.081,309.042 89.119 M320.125 89.121 C 320.423 89.158,320.910 89.158,321.208 89.121 C 321.506 89.084,321.262 89.053,320.667 89.053 C 320.071 89.053,319.827 89.084,320.125 89.121 M328.969 89.125 C 330.464 89.152,332.864 89.152,334.302 89.125 C 335.740 89.097,334.517 89.074,331.583 89.074 C 328.650 89.074,327.473 89.097,328.969 89.125 M344.948 89.124 L 351.147 89.171 351.216 89.753 L 351.285 90.336 351.267 89.710 L 351.250 89.083 345.000 89.080 L 338.750 89.077 344.948 89.124 M355.217 89.124 C 356.116 89.154,357.541 89.154,358.384 89.124 C 359.227 89.094,358.492 89.069,356.750 89.069 C 355.008 89.070,354.318 89.094,355.217 89.124 M367.625 89.121 C 367.923 89.158,368.410 89.158,368.708 89.121 C 369.006 89.084,368.762 89.053,368.167 89.053 C 367.571 89.053,367.327 89.084,367.625 89.121 M379.461 89.121 C 379.761 89.158,380.211 89.157,380.461 89.119 C 380.712 89.081,380.467 89.051,379.917 89.052 C 379.367 89.053,379.162 89.084,379.461 89.121 M61.741 95.417 C 61.740 98.167,61.763 99.315,61.791 97.969 C 61.819 96.622,61.819 94.372,61.791 92.969 C 61.763 91.565,61.741 92.667,61.741 95.417 M73.579 94.750 L 73.583 99.083 75.875 99.091 L 78.167 99.098 75.920 99.044 L 73.672 98.991 73.623 94.704 L 73.575 90.417 73.579 94.750 M175.241 95.417 C 175.240 98.167,175.263 99.315,175.291 97.969 C 175.319 96.622,175.319 94.372,175.291 92.969 C 175.263 91.565,175.241 92.667,175.241 95.417 M287.562 92.167 C 287.562 93.129,287.589 93.523,287.623 93.042 C 287.657 92.560,287.657 91.773,287.623 91.292 C 287.589 90.810,287.562 91.204,287.562 92.167 M138.205 93.000 C 138.205 93.321,138.240 93.452,138.282 93.292 C 138.323 93.131,138.323 92.869,138.282 92.708 C 138.240 92.548,138.205 92.679,138.205 93.000 M225.712 94.667 C 225.712 95.079,225.745 95.248,225.784 95.042 C 225.824 94.835,225.824 94.498,225.784 94.292 C 225.745 94.085,225.712 94.254,225.712 94.667 M287.562 97.250 C 287.563 98.258,287.590 98.649,287.623 98.119 C 287.657 97.588,287.656 96.763,287.623 96.286 C 287.589 95.808,287.562 96.242,287.562 97.250 M220.458 99.125 C 221.673 99.153,223.660 99.153,224.875 99.125 C 226.090 99.096,225.096 99.073,222.667 99.073 C 220.237 99.073,219.244 99.096,220.458 99.125 M330.625 99.125 C 331.840 99.153,333.827 99.153,335.042 99.125 C 336.256 99.096,335.262 99.073,332.833 99.073 C 330.404 99.073,329.410 99.096,330.625 99.125 " stroke="none" fill="#7c7c7c" fill-rule="evenodd"></path><path id="path4" d="M55.877 10.620 C 56.131 10.658,56.506 10.657,56.711 10.617 C 56.916 10.578,56.708 10.546,56.250 10.548 C 55.792 10.549,55.624 10.581,55.877 10.620 M57.294 12.118 C 57.501 12.158,57.801 12.156,57.960 12.115 C 58.120 12.073,57.950 12.040,57.583 12.042 C 57.217 12.044,57.086 12.078,57.294 12.118 M64.500 13.583 C 64.811 13.904,65.103 14.167,65.149 14.167 C 65.195 14.167,64.978 13.904,64.667 13.583 C 64.356 13.262,64.064 13.000,64.018 13.000 C 63.972 13.000,64.189 13.262,64.500 13.583 M353.663 19.958 L 352.250 21.417 353.708 20.004 C 354.510 19.227,355.167 18.570,355.167 18.545 C 355.167 18.424,354.975 18.604,353.663 19.958 M262.539 19.500 C 262.539 19.821,262.573 19.952,262.615 19.792 C 262.657 19.631,262.657 19.369,262.615 19.208 C 262.573 19.048,262.539 19.179,262.539 19.500 M259.052 20.583 C 259.053 21.133,259.084 21.338,259.121 21.039 C 259.158 20.739,259.157 20.289,259.119 20.039 C 259.081 19.788,259.051 20.033,259.052 20.583 M67.205 20.500 C 67.205 20.821,67.240 20.952,67.282 20.792 C 67.323 20.631,67.323 20.369,67.282 20.208 C 67.240 20.048,67.205 20.179,67.205 20.500 M262.542 21.083 C 262.544 21.450,262.578 21.580,262.618 21.373 C 262.658 21.166,262.656 20.866,262.615 20.706 C 262.573 20.547,262.540 20.717,262.542 21.083 M35.242 21.375 L 34.583 22.083 35.292 21.425 C 35.681 21.062,36.000 20.743,36.000 20.716 C 36.000 20.590,35.855 20.716,35.242 21.375 M349.910 23.875 L 349.083 24.750 349.958 23.923 C 350.440 23.468,350.833 23.074,350.833 23.048 C 350.833 22.924,350.679 23.062,349.910 23.875 M34.747 25.208 L 33.250 26.750 34.792 25.253 C 35.640 24.430,36.333 23.737,36.333 23.712 C 36.333 23.591,36.136 23.776,34.747 25.208 M220.167 24.417 C 219.762 24.829,219.468 25.167,219.514 25.167 C 219.560 25.167,219.928 24.829,220.333 24.417 C 220.738 24.004,221.032 23.667,220.986 23.667 C 220.940 23.667,220.572 24.004,220.167 24.417 M329.744 24.542 L 328.917 25.417 329.792 24.590 C 330.273 24.135,330.667 23.741,330.667 23.715 C 330.667 23.590,330.512 23.729,329.744 24.542 M30.075 26.542 L 29.417 27.250 30.125 26.591 C 30.784 25.978,30.910 25.833,30.784 25.833 C 30.757 25.833,30.438 26.152,30.075 26.542 M346.911 27.042 L 345.917 28.083 346.958 27.089 C 347.531 26.541,348.000 26.073,348.000 26.047 C 348.000 25.924,347.836 26.074,346.911 27.042 M257.079 30.875 L 255.750 32.250 257.125 30.921 C 257.881 30.189,258.500 29.571,258.500 29.546 C 258.500 29.424,258.314 29.598,257.079 30.875 M253.329 30.958 L 252.250 32.083 253.375 31.005 C 254.420 30.003,254.576 29.833,254.454 29.833 C 254.428 29.833,253.922 30.340,253.329 30.958 M57.078 33.208 L 56.083 34.250 57.125 33.255 C 58.093 32.331,58.243 32.167,58.120 32.167 C 58.094 32.167,57.625 32.635,57.078 33.208 M338.248 35.708 L 335.417 38.583 338.292 35.752 C 340.963 33.121,341.242 32.833,341.123 32.833 C 341.099 32.833,339.805 34.127,338.248 35.708 M253.294 35.451 C 253.501 35.491,253.801 35.490,253.960 35.448 C 254.120 35.406,253.950 35.374,253.583 35.375 C 253.217 35.377,253.086 35.411,253.294 35.451 M340.333 35.677 C 340.333 35.774,340.267 35.812,340.186 35.762 C 340.104 35.711,339.936 35.801,339.811 35.960 C 339.613 36.212,339.616 36.225,339.833 36.056 C 339.971 35.949,340.156 35.861,340.246 35.860 C 340.335 35.859,340.435 35.778,340.468 35.679 C 340.501 35.581,340.484 35.500,340.431 35.500 C 340.377 35.500,340.333 35.579,340.333 35.677 M226.075 41.708 L 225.417 42.417 226.125 41.758 C 226.515 41.395,226.833 41.077,226.833 41.050 C 226.833 40.923,226.688 41.050,226.075 41.708 M262.223 42.333 C 262.223 43.021,262.252 43.302,262.288 42.958 C 262.324 42.615,262.324 42.052,262.288 41.708 C 262.252 41.365,262.223 41.646,262.223 42.333 M226.915 44.542 L 223.750 47.750 226.958 44.585 C 228.723 42.844,230.167 41.400,230.167 41.377 C 230.167 41.258,229.856 41.561,226.915 44.542 M221.997 45.958 L 219.917 48.083 222.042 46.003 C 224.016 44.070,224.242 43.833,224.122 43.833 C 224.098 43.833,223.142 44.790,221.997 45.958 M327.414 46.375 L 325.083 48.750 327.458 46.419 C 328.765 45.137,329.833 44.068,329.833 44.044 C 329.833 43.925,329.580 44.169,327.414 46.375 M330.578 45.208 L 329.583 46.250 330.625 45.255 C 331.593 44.331,331.743 44.167,331.620 44.167 C 331.594 44.167,331.125 44.635,330.578 45.208 M284.294 45.285 C 284.501 45.324,284.801 45.323,284.960 45.281 C 285.120 45.239,284.950 45.207,284.583 45.209 C 284.217 45.211,284.086 45.245,284.294 45.285 M112.208 46.121 C 112.552 46.157,113.115 46.157,113.458 46.121 C 113.802 46.085,113.521 46.056,112.833 46.056 C 112.146 46.056,111.865 46.085,112.208 46.121 M203.458 46.451 C 203.665 46.491,204.002 46.491,204.208 46.451 C 204.415 46.411,204.246 46.379,203.833 46.379 C 203.421 46.379,203.252 46.411,203.458 46.451 M207.458 46.451 C 207.665 46.491,208.002 46.491,208.208 46.451 C 208.415 46.411,208.246 46.379,207.833 46.379 C 207.421 46.379,207.252 46.411,207.458 46.451 M204.796 47.456 C 205.188 47.491,205.788 47.490,206.129 47.454 C 206.471 47.419,206.150 47.390,205.417 47.390 C 204.683 47.391,204.404 47.420,204.796 47.456 M327.491 48.125 L 326.917 48.750 327.542 48.176 C 327.885 47.860,328.167 47.578,328.167 47.551 C 328.167 47.423,328.026 47.543,327.491 48.125 M71.795 47.787 C 72.094 47.825,72.544 47.824,72.795 47.786 C 73.045 47.748,72.800 47.717,72.250 47.718 C 71.700 47.719,71.495 47.750,71.795 47.787 M132.628 47.787 C 132.928 47.825,133.378 47.824,133.628 47.786 C 133.878 47.748,133.633 47.717,133.083 47.718 C 132.533 47.719,132.328 47.750,132.628 47.787 M357.792 47.787 C 358.090 47.824,358.577 47.824,358.875 47.787 C 359.173 47.750,358.929 47.720,358.333 47.720 C 357.738 47.720,357.494 47.750,357.792 47.787 M73.083 49.454 C 73.267 49.499,73.529 49.622,73.667 49.726 C 73.884 49.892,73.887 49.879,73.688 49.625 C 73.562 49.465,73.300 49.342,73.105 49.353 C 72.768 49.371,72.767 49.376,73.083 49.454 M325.406 50.042 L 324.917 50.583 325.458 50.094 C 325.963 49.638,326.077 49.500,325.948 49.500 C 325.919 49.500,325.675 49.744,325.406 50.042 M127.333 50.583 C 126.928 50.996,126.635 51.333,126.681 51.333 C 126.726 51.333,127.095 50.996,127.500 50.583 C 127.905 50.171,128.199 49.833,128.153 49.833 C 128.107 49.833,127.738 50.171,127.333 50.583 M310.627 50.451 C 310.834 50.491,311.134 50.490,311.294 50.448 C 311.453 50.406,311.283 50.374,310.917 50.375 C 310.550 50.377,310.420 50.411,310.627 50.451 M391.142 50.512 C 391.424 50.624,391.503 50.751,391.424 50.959 C 391.338 51.187,391.358 51.206,391.516 51.049 C 391.769 50.798,391.439 50.328,391.021 50.344 C 390.846 50.351,390.888 50.410,391.142 50.512 M321.994 51.625 L 321.083 52.583 322.042 51.672 C 322.932 50.826,323.076 50.667,322.953 50.667 C 322.927 50.667,322.495 51.098,321.994 51.625 M130.242 51.875 L 129.583 52.583 130.292 51.925 C 130.950 51.312,131.077 51.167,130.950 51.167 C 130.923 51.167,130.605 51.485,130.242 51.875 M257.079 52.375 L 255.917 53.583 257.125 52.421 C 258.247 51.342,258.409 51.167,258.287 51.167 C 258.262 51.167,257.718 51.710,257.079 52.375 M356.578 53.875 L 355.583 54.917 356.625 53.922 C 357.198 53.375,357.667 52.906,357.667 52.880 C 357.667 52.757,357.502 52.907,356.578 53.875 M131.409 53.875 L 130.750 54.583 131.458 53.925 C 132.117 53.312,132.243 53.167,132.117 53.167 C 132.090 53.167,131.771 53.485,131.409 53.875 M212.991 54.958 L 212.417 55.583 213.042 55.009 C 213.385 54.693,213.667 54.412,213.667 54.384 C 213.667 54.257,213.526 54.377,212.991 54.958 M111.460 55.618 C 111.668 55.658,111.968 55.656,112.127 55.615 C 112.286 55.573,112.117 55.540,111.750 55.542 C 111.383 55.544,111.253 55.578,111.460 55.618 M350.209 56.250 C 350.211 56.617,350.245 56.747,350.285 56.540 C 350.324 56.332,350.323 56.032,350.281 55.873 C 350.239 55.714,350.207 55.883,350.209 56.250 M356.423 56.156 C 356.360 56.258,356.417 56.291,356.561 56.235 C 356.712 56.178,356.834 56.259,356.878 56.446 C 356.942 56.717,356.948 56.716,356.933 56.430 C 356.915 56.068,356.586 55.892,356.423 56.156 M116.167 56.750 C 116.478 57.071,116.770 57.333,116.815 57.333 C 116.861 57.333,116.644 57.071,116.333 56.750 C 116.022 56.429,115.730 56.167,115.685 56.167 C 115.639 56.167,115.856 56.429,116.167 56.750 M57.463 56.956 C 57.855 56.991,58.455 56.990,58.796 56.954 C 59.137 56.919,58.817 56.890,58.083 56.890 C 57.350 56.891,57.071 56.920,57.463 56.956 M341.580 58.375 L 340.083 59.917 341.625 58.420 C 343.057 57.030,343.243 56.833,343.122 56.833 C 343.097 56.833,342.403 57.527,341.580 58.375 M60.091 57.375 C 60.188 57.630,60.081 57.671,59.226 57.697 L 58.250 57.728 59.149 57.790 C 60.115 57.857,60.550 57.649,60.190 57.292 C 60.022 57.125,60.002 57.141,60.091 57.375 M276.167 58.083 C 276.478 58.404,276.770 58.667,276.815 58.667 C 276.861 58.667,276.644 58.404,276.333 58.083 C 276.022 57.762,275.730 57.500,275.685 57.500 C 275.639 57.500,275.856 57.762,276.167 58.083 M313.044 58.786 C 313.297 58.825,313.672 58.824,313.877 58.784 C 314.082 58.744,313.875 58.713,313.417 58.714 C 312.958 58.716,312.791 58.748,313.044 58.786 M71.833 59.719 C 71.833 59.748,72.077 59.991,72.375 60.260 L 72.917 60.750 72.427 60.208 C 71.971 59.703,71.833 59.590,71.833 59.719 M245.083 60.501 C 244.914 60.774,245.365 60.852,246.765 60.791 L 248.083 60.734 246.615 60.700 C 245.687 60.679,245.185 60.605,245.250 60.500 C 245.307 60.408,245.316 60.333,245.270 60.333 C 245.224 60.333,245.140 60.409,245.083 60.501 M250.044 60.620 C 250.297 60.658,250.672 60.657,250.877 60.617 C 251.082 60.578,250.875 60.546,250.417 60.548 C 249.958 60.549,249.791 60.581,250.044 60.620 M281.792 60.618 C 281.998 60.657,282.335 60.657,282.542 60.618 C 282.748 60.578,282.579 60.545,282.167 60.545 C 281.754 60.545,281.585 60.578,281.792 60.618 M242.377 61.786 C 242.631 61.825,243.006 61.824,243.211 61.784 C 243.416 61.744,243.208 61.713,242.750 61.714 C 242.292 61.716,242.124 61.748,242.377 61.786 M251.875 61.782 C 252.035 61.823,252.298 61.823,252.458 61.782 C 252.619 61.740,252.487 61.705,252.167 61.705 C 251.846 61.705,251.715 61.740,251.875 61.782 M114.740 62.375 L 114.250 62.917 114.792 62.427 C 115.090 62.158,115.333 61.914,115.333 61.885 C 115.333 61.757,115.196 61.870,114.740 62.375 M244.792 61.954 C 245.090 61.991,245.577 61.991,245.875 61.954 C 246.173 61.917,245.929 61.887,245.333 61.887 C 244.737 61.887,244.494 61.917,244.792 61.954 M249.292 61.954 C 249.590 61.991,250.077 61.991,250.375 61.954 C 250.673 61.917,250.429 61.887,249.833 61.887 C 249.237 61.887,248.994 61.917,249.292 61.954 M13.872 62.500 C 13.872 62.821,13.906 62.952,13.948 62.792 C 13.990 62.631,13.990 62.369,13.948 62.208 C 13.906 62.048,13.872 62.179,13.872 62.500 M78.208 62.115 C 78.369 62.157,78.631 62.157,78.792 62.115 C 78.952 62.073,78.821 62.039,78.500 62.039 C 78.179 62.039,78.048 62.073,78.208 62.115 M137.208 62.115 C 137.369 62.157,137.631 62.157,137.792 62.115 C 137.952 62.073,137.821 62.039,137.500 62.039 C 137.179 62.039,137.048 62.073,137.208 62.115 M139.127 62.118 C 139.334 62.158,139.634 62.156,139.794 62.115 C 139.953 62.073,139.783 62.040,139.417 62.042 C 139.050 62.044,138.920 62.078,139.127 62.118 M364.294 62.118 C 364.501 62.158,364.801 62.156,364.960 62.115 C 365.120 62.073,364.950 62.040,364.583 62.042 C 364.217 62.044,364.086 62.078,364.294 62.118 M11.050 63.167 C 11.050 63.671,11.081 63.877,11.119 63.625 C 11.158 63.373,11.158 62.960,11.119 62.708 C 11.081 62.456,11.050 62.663,11.050 63.167 M195.333 62.719 C 195.333 62.748,195.577 62.991,195.875 63.260 L 196.417 63.750 195.927 63.208 C 195.471 62.703,195.333 62.590,195.333 62.719 M13.879 64.000 C 13.879 64.412,13.911 64.581,13.951 64.375 C 13.991 64.169,13.991 63.831,13.951 63.625 C 13.911 63.419,13.879 63.587,13.879 64.000 M112.294 63.618 C 112.501 63.658,112.801 63.656,112.960 63.615 C 113.120 63.573,112.950 63.540,112.583 63.542 C 112.217 63.544,112.086 63.578,112.294 63.618 M325.550 64.333 C 325.550 64.837,325.581 65.044,325.619 64.792 C 325.658 64.540,325.658 64.127,325.619 63.875 C 325.581 63.623,325.550 63.829,325.550 64.333 M328.205 65.667 C 328.205 65.987,328.240 66.119,328.282 65.958 C 328.323 65.798,328.323 65.535,328.282 65.375 C 328.240 65.215,328.205 65.346,328.205 65.667 M210.292 67.290 C 210.865 67.323,211.802 67.323,212.375 67.290 C 212.948 67.258,212.479 67.231,211.333 67.231 C 210.188 67.231,209.719 67.258,210.292 67.290 M204.667 67.618 C 204.804 67.669,205.067 67.832,205.250 67.980 C 205.580 68.248,205.581 68.247,205.266 67.875 C 205.091 67.669,204.829 67.506,204.683 67.513 C 204.457 67.524,204.454 67.540,204.667 67.618 M217.875 68.115 C 218.035 68.157,218.298 68.157,218.458 68.115 C 218.619 68.073,218.487 68.039,218.167 68.039 C 217.846 68.039,217.715 68.073,217.875 68.115 M328.628 68.121 C 328.928 68.158,329.378 68.157,329.628 68.119 C 329.878 68.081,329.633 68.051,329.083 68.052 C 328.533 68.053,328.328 68.084,328.628 68.121 M206.044 68.286 C 206.297 68.325,206.672 68.324,206.877 68.284 C 207.082 68.244,206.875 68.213,206.417 68.214 C 205.958 68.216,205.791 68.248,206.044 68.286 M208.460 68.285 C 208.668 68.324,208.968 68.323,209.127 68.281 C 209.286 68.239,209.117 68.207,208.750 68.209 C 208.383 68.211,208.253 68.245,208.460 68.285 M215.958 68.284 C 216.165 68.324,216.502 68.324,216.708 68.284 C 216.915 68.245,216.746 68.212,216.333 68.212 C 215.921 68.212,215.752 68.245,215.958 68.284 M211.542 68.456 C 212.069 68.490,212.931 68.490,213.458 68.456 C 213.985 68.423,213.554 68.396,212.500 68.396 C 211.446 68.396,211.015 68.423,211.542 68.456 M16.500 72.885 C 16.500 72.914,16.744 73.158,17.042 73.427 L 17.583 73.917 17.094 73.375 C 16.638 72.870,16.500 72.757,16.500 72.885 M21.211 76.120 C 21.464 76.158,21.839 76.157,22.044 76.117 C 22.249 76.078,22.042 76.046,21.583 76.048 C 21.125 76.049,20.957 76.081,21.211 76.120 M41.571 92.667 C 41.571 94.638,41.595 95.444,41.624 94.458 C 41.654 93.473,41.654 91.860,41.624 90.875 C 41.595 89.890,41.571 90.696,41.571 92.667 M52.403 92.417 C 52.403 94.250,52.428 95.023,52.457 94.134 C 52.487 93.245,52.488 91.745,52.458 90.801 C 52.428 89.856,52.404 90.583,52.403 92.417 M54.404 92.500 C 54.404 94.379,54.428 95.148,54.458 94.208 C 54.487 93.269,54.487 91.731,54.458 90.792 C 54.428 89.852,54.404 90.621,54.404 92.500 M56.542 89.750 C 56.544 90.117,56.578 90.247,56.618 90.040 C 56.658 89.832,56.656 89.532,56.615 89.373 C 56.573 89.214,56.540 89.383,56.542 89.750 M69.045 89.833 C 69.045 90.246,69.078 90.415,69.118 90.208 C 69.157 90.002,69.157 89.665,69.118 89.458 C 69.078 89.252,69.045 89.421,69.045 89.833 M147.741 94.750 C 147.742 97.867,147.764 99.118,147.791 97.531 C 147.819 95.944,147.819 93.394,147.791 91.864 C 147.764 90.335,147.741 91.633,147.741 94.750 M167.875 89.750 C 167.877 90.117,167.911 90.247,167.951 90.040 C 167.991 89.832,167.990 89.532,167.948 89.373 C 167.906 89.214,167.874 89.383,167.875 89.750 M200.400 91.583 C 200.400 92.958,200.426 93.499,200.457 92.784 C 200.489 92.069,200.488 90.944,200.457 90.284 C 200.425 89.624,200.400 90.208,200.400 91.583 M303.908 94.750 C 303.908 97.867,303.931 99.118,303.958 97.531 C 303.986 95.944,303.985 93.394,303.958 91.864 C 303.931 90.335,303.908 91.633,303.908 94.750 M319.572 93.333 C 319.572 95.671,319.596 96.627,319.625 95.458 C 319.653 94.290,319.653 92.377,319.625 91.208 C 319.596 90.040,319.572 90.996,319.572 93.333 M338.712 89.833 C 338.712 90.246,338.745 90.415,338.784 90.208 C 338.824 90.002,338.824 89.665,338.784 89.458 C 338.745 89.252,338.712 89.421,338.712 89.833 M353.575 94.750 C 353.575 97.867,353.597 99.118,353.625 97.531 C 353.652 95.944,353.652 93.394,353.625 91.864 C 353.597 90.335,353.575 91.633,353.575 94.750 M310.667 89.385 C 310.667 89.414,310.910 89.658,311.208 89.927 L 311.750 90.417 311.260 89.875 C 310.804 89.370,310.667 89.257,310.667 89.385 M128.067 93.000 C 128.067 94.421,128.093 95.002,128.124 94.292 C 128.155 93.581,128.155 92.419,128.124 91.708 C 128.093 90.998,128.067 91.579,128.067 93.000 M218.062 92.250 C 218.063 93.258,218.090 93.649,218.123 93.119 C 218.157 92.588,218.156 91.763,218.123 91.286 C 218.089 90.808,218.062 91.242,218.062 92.250 M328.228 92.167 C 328.228 93.129,328.256 93.523,328.290 93.042 C 328.323 92.560,328.323 91.773,328.290 91.292 C 328.256 90.810,328.228 91.204,328.228 92.167 M343.907 95.500 C 343.907 98.296,343.930 99.440,343.958 98.042 C 343.986 96.644,343.986 94.356,343.958 92.958 C 343.930 91.560,343.907 92.704,343.907 95.500 M254.240 91.375 L 253.750 91.917 254.292 91.427 C 254.797 90.971,254.910 90.833,254.781 90.833 C 254.752 90.833,254.509 91.077,254.240 91.375 M234.833 91.583 C 235.144 91.904,235.436 92.167,235.482 92.167 C 235.528 92.167,235.311 91.904,235.000 91.583 C 234.689 91.263,234.397 91.000,234.351 91.000 C 234.305 91.000,234.522 91.263,234.833 91.583 M313.000 91.552 C 313.000 91.581,313.244 91.825,313.542 92.094 L 314.083 92.583 313.594 92.042 C 313.138 91.537,313.000 91.423,313.000 91.552 M232.575 92.211 C 232.530 92.328,232.514 94.259,232.539 96.503 L 232.584 100.583 232.667 96.292 C 232.748 92.094,232.741 91.779,232.575 92.211 M310.739 96.250 C 310.739 98.633,310.763 99.585,310.791 98.365 C 310.820 97.145,310.820 95.195,310.791 94.032 C 310.763 92.868,310.739 93.867,310.739 96.250 M233.583 92.833 C 233.941 93.200,234.272 93.500,234.318 93.500 C 234.363 93.500,234.108 93.200,233.750 92.833 C 233.392 92.467,233.062 92.167,233.016 92.167 C 232.970 92.167,233.225 92.467,233.583 92.833 M365.714 93.083 C 365.716 93.542,365.748 93.709,365.786 93.456 C 365.825 93.203,365.824 92.828,365.784 92.623 C 365.744 92.418,365.713 92.625,365.714 93.083 M312.000 93.052 C 312.000 93.081,312.244 93.325,312.542 93.594 L 313.083 94.083 312.594 93.542 C 312.138 93.037,312.000 92.923,312.000 93.052 M237.167 93.750 C 237.478 94.071,237.770 94.333,237.815 94.333 C 237.861 94.333,237.644 94.071,237.333 93.750 C 237.022 93.429,236.730 93.167,236.685 93.167 C 236.639 93.167,236.856 93.429,237.167 93.750 M287.646 94.046 C 287.717 94.117,288.932 94.155,290.346 94.129 L 292.917 94.082 290.216 93.999 C 288.731 93.954,287.574 93.975,287.646 94.046 M315.500 93.885 C 315.500 93.914,315.744 94.158,316.042 94.427 L 316.583 94.917 316.094 94.375 C 315.638 93.870,315.500 93.757,315.500 93.885 M335.875 94.583 C 335.877 94.950,335.911 95.080,335.951 94.873 C 335.991 94.666,335.990 94.366,335.948 94.206 C 335.906 94.047,335.874 94.217,335.875 94.583 M181.375 94.750 C 181.377 95.117,181.411 95.247,181.451 95.040 C 181.491 94.832,181.490 94.532,181.448 94.373 C 181.406 94.214,181.374 94.383,181.375 94.750 M254.875 94.750 C 254.877 95.117,254.911 95.247,254.951 95.040 C 254.991 94.832,254.990 94.532,254.948 94.373 C 254.906 94.214,254.874 94.383,254.875 94.750 M88.205 94.833 C 88.205 95.154,88.240 95.285,88.282 95.125 C 88.323 94.965,88.323 94.702,88.282 94.542 C 88.240 94.381,88.205 94.513,88.205 94.833 M236.083 95.167 C 236.441 95.533,236.772 95.833,236.818 95.833 C 236.863 95.833,236.608 95.533,236.250 95.167 C 235.892 94.800,235.562 94.500,235.516 94.500 C 235.470 94.500,235.725 94.800,236.083 95.167 M200.400 97.833 C 200.400 99.254,200.426 99.835,200.457 99.125 C 200.488 98.415,200.488 97.252,200.457 96.542 C 200.426 95.831,200.400 96.412,200.400 97.833 M314.500 95.385 C 314.500 95.414,314.744 95.658,315.042 95.927 L 315.583 96.417 315.094 95.875 C 314.638 95.370,314.500 95.257,314.500 95.385 M218.028 97.198 C 218.013 98.179,218.056 99.015,218.125 99.058 C 218.194 99.101,218.230 98.562,218.205 97.860 C 218.125 95.620,218.057 95.364,218.028 97.198 M239.667 96.083 C 239.978 96.404,240.270 96.667,240.315 96.667 C 240.361 96.667,240.144 96.404,239.833 96.083 C 239.522 95.763,239.230 95.500,239.185 95.500 C 239.139 95.500,239.356 95.763,239.667 96.083 M328.195 97.198 C 328.179 98.179,328.223 99.015,328.292 99.058 C 328.360 99.101,328.396 98.562,328.371 97.860 C 328.292 95.620,328.224 95.364,328.195 97.198 M317.833 96.052 C 317.833 96.081,318.077 96.325,318.375 96.594 L 318.917 97.083 318.427 96.542 C 317.971 96.037,317.833 95.923,317.833 96.052 M134.934 96.639 C 134.886 96.716,135.201 97.109,135.632 97.514 L 136.417 98.250 135.705 97.490 C 135.313 97.072,135.044 96.678,135.107 96.615 C 135.171 96.552,135.177 96.500,135.121 96.500 C 135.065 96.500,134.981 96.563,134.934 96.639 M238.417 97.333 C 238.775 97.700,239.105 98.000,239.151 98.000 C 239.197 98.000,238.941 97.700,238.583 97.333 C 238.225 96.967,237.895 96.667,237.849 96.667 C 237.803 96.667,238.059 96.967,238.417 97.333 M128.062 98.750 C 128.063 99.758,128.090 100.149,128.123 99.619 C 128.157 99.088,128.156 98.263,128.123 97.786 C 128.089 97.308,128.062 97.742,128.062 98.750 M361.000 97.583 C 361.311 97.904,361.603 98.167,361.649 98.167 C 361.695 98.167,361.478 97.904,361.167 97.583 C 360.856 97.263,360.564 97.000,360.518 97.000 C 360.472 97.000,360.689 97.263,361.000 97.583 M270.812 97.792 C 270.610 98.049,270.614 98.059,270.847 97.878 C 271.034 97.732,272.257 97.659,275.097 97.625 L 279.083 97.577 275.062 97.539 C 271.403 97.503,271.020 97.526,270.812 97.792 M182.500 97.885 C 182.500 97.914,182.744 98.158,183.042 98.427 L 183.583 98.917 183.094 98.375 C 182.638 97.870,182.500 97.757,182.500 97.885 M364.083 98.500 C 364.441 98.867,364.772 99.167,364.818 99.167 C 364.863 99.167,364.608 98.867,364.250 98.500 C 363.892 98.133,363.562 97.833,363.516 97.833 C 363.470 97.833,363.725 98.133,364.083 98.500 M42.333 98.385 C 42.333 98.414,42.577 98.658,42.875 98.927 L 43.417 99.417 42.927 98.875 C 42.471 98.370,42.333 98.257,42.333 98.385 M53.073 98.875 L 52.583 99.417 53.125 98.927 C 53.630 98.471,53.743 98.333,53.615 98.333 C 53.586 98.333,53.342 98.577,53.073 98.875 M135.083 99.333 C 135.441 99.700,135.772 100.000,135.818 100.000 C 135.863 100.000,135.608 99.700,135.250 99.333 C 134.892 98.967,134.562 98.667,134.516 98.667 C 134.470 98.667,134.725 98.967,135.083 99.333 M240.917 99.667 C 241.275 100.033,241.605 100.333,241.651 100.333 C 241.697 100.333,241.441 100.033,241.083 99.667 C 240.725 99.300,240.395 99.000,240.349 99.000 C 240.303 99.000,240.559 99.300,240.917 99.667 M362.833 99.552 C 362.833 99.581,363.077 99.825,363.375 100.094 L 363.917 100.583 363.427 100.042 C 362.971 99.537,362.833 99.423,362.833 99.552 " stroke="none" fill="#747474" fill-rule="evenodd"></path></g></svg>